<svg xmlns="http://www.w3.org/2000/svg" xmlns:xlink="http://www.w3.org/1999/xlink" width="2000" zoomAndPan="magnify" viewBox="0 0 1500 1499.999933" height="2000" preserveAspectRatio="xMidYMid meet" version="1.0"><defs><g/></defs><rect x="-150" width="1800" fill="#ffffff" y="-149.999993" height="1799.99992" fill-opacity="1"/><rect x="-150" width="1800" fill="#222222" y="-149.999993" height="1799.99992" fill-opacity="1"/><g fill="#f5f5f5" fill-opacity="1"><g transform="translate(420.503907, 1212.719876)"><g><path d="M 220.5 10.015625 C 213.8125 24.210938 208.585938 34.648438 204.828125 41.328125 C 201.066406 48.015625 194.800781 54.488281 186.03125 60.75 C 177.269531 67.019531 165.789062 70.15625 151.59375 70.15625 C 137.394531 70.15625 116.515625 63.890625 88.953125 51.359375 C 61.390625 38.835938 42.804688 27.773438 33.203125 18.171875 C 23.597656 8.566406 18.796875 -2.078125 18.796875 -13.765625 C 18.796875 -25.460938 23.804688 -46.347656 33.828125 -76.421875 L 437.21875 -919.546875 C 453.09375 -951.285156 467.296875 -969.660156 479.828125 -974.671875 C 486.503906 -978.015625 496.316406 -979.6875 509.265625 -979.6875 C 522.210938 -979.6875 543.300781 -973.003906 572.53125 -959.640625 C 617.625 -937.921875 640.171875 -914.117188 640.171875 -888.234375 C 640.171875 -877.378906 634.328125 -856.5 622.640625 -825.59375 Z M 220.5 10.015625 "/></g></g></g></svg>