<svg xmlns="http://www.w3.org/2000/svg" xmlns:xlink="http://www.w3.org/1999/xlink" width="2000" zoomAndPan="magnify" viewBox="0 0 1500 749.999995" height="1000" preserveAspectRatio="xMidYMid meet" version="1.0"><defs><g/><clipPath id="ed510f577e"><path d="M 924.457031 228 L 1323.53125 228 L 1323.53125 516.0625 L 924.457031 516.0625 Z M 924.457031 228 " clip-rule="nonzero"/></clipPath><clipPath id="576603f67a"><path d="M 218.550781 654.503906 L 253 654.503906 L 253 749.703125 L 218.550781 749.703125 Z M 218.550781 654.503906 " clip-rule="nonzero"/></clipPath><clipPath id="c238a4f163"><path d="M 150.558594 464 L 374 464 L 374 713 L 150.558594 713 Z M 150.558594 464 " clip-rule="nonzero"/></clipPath><clipPath id="e4c7600120"><path d="M 0 4 L 104 4 L 104 26 L 0 26 Z M 0 4 " clip-rule="nonzero"/></clipPath><clipPath id="e73d6e4431"><rect x="0" width="106" y="0" height="34"/></clipPath></defs><path fill="#c25a3e" d="M 956.554688 514.742188 C 952.710938 514.667969 948.871094 514.625 945.027344 514.613281 C 941.984375 514.597656 938.945312 514.601562 935.914062 514.644531 C 932.472656 514.679688 929.027344 514.742188 925.589844 514.824219 C 925.308594 514.832031 925.03125 514.832031 924.753906 514.84375 C 924.714844 515.214844 924.6875 515.578125 924.664062 515.953125 C 924.152344 521.726562 923.742188 527.507812 923.421875 533.300781 C 923.023438 540.4375 922.757812 547.589844 922.644531 554.746094 C 922.53125 561.582031 922.542969 568.410156 922.6875 575.238281 C 922.714844 576.484375 922.304688 580.363281 923.042969 581.175781 C 923.707031 581.894531 981.988281 582.738281 983.40625 582.570312 C 985.113281 582.359375 985.316406 579.609375 985.683594 577.675781 C 986.984375 570.851562 988.289062 564.011719 989.59375 557.175781 C 991.089844 549.34375 992.582031 541.515625 994.082031 533.691406 C 995.15625 528.042969 996.230469 522.390625 997.308594 516.742188 C 983.738281 515.6875 970.152344 515.003906 956.554688 514.742188 " fill-opacity="1" fill-rule="nonzero"/><path fill="#401d1d" d="M 956.554688 514.742188 C 952.710938 514.667969 948.871094 514.625 945.027344 514.613281 C 938.246094 515.167969 931.453125 515.632812 924.664062 515.953125 C 924.152344 521.726562 923.742188 527.507812 923.421875 533.300781 C 946.980469 533.300781 970.53125 534.246094 994.082031 533.691406 C 995.15625 528.042969 996.230469 522.390625 997.308594 516.742188 C 983.738281 515.6875 970.152344 515.003906 956.554688 514.742188 " fill-opacity="1" fill-rule="nonzero"/><path fill="#8a9177" d="M 1264.15625 452.910156 C 1264.15625 453.21875 1264.148438 453.527344 1264.128906 453.828125 C 1263.984375 456.117188 1263.394531 458.425781 1262.300781 460.644531 C 1257.953125 469.527344 1248.296875 474.917969 1239.839844 479.21875 C 1220.921875 488.820312 1200.027344 493.578125 1179.332031 497.578125 C 1156.59375 501.96875 1133.792969 506.257812 1110.875 509.574219 C 1107.410156 510.074219 1103.945312 510.570312 1100.453125 511.039062 L 1040.9375 497.339844 L 993.609375 486.449219 C 992.699219 483.964844 991.261719 481.710938 989.371094 479.882812 C 988.878906 479.394531 988.359375 478.945312 987.816406 478.527344 C 989.40625 477.910156 990.988281 477.292969 992.570312 476.675781 C 994.066406 476.101562 995.566406 475.527344 997.054688 474.957031 C 1034.933594 460.570312 1073.617188 448.144531 1113.058594 438.859375 C 1118.070312 437.679688 1123.097656 436.542969 1128.136719 435.46875 C 1150.34375 430.722656 1172.972656 426.433594 1195.65625 424.914062 C 1207.0625 424.148438 1218.574219 424.277344 1229.878906 426.078125 C 1239.757812 427.640625 1250.632812 430.234375 1257.792969 437.742188 C 1261.789062 441.941406 1264.238281 447.371094 1264.15625 452.910156 " fill-opacity="1" fill-rule="nonzero"/><g clip-path="url(#ed510f577e)"><path fill="#8a9177" d="M 1301.480469 334.742188 C 1278.429688 348.707031 1253.835938 359.679688 1229.5 371.027344 C 1204.296875 382.773438 1179.777344 395.9375 1156.058594 410.449219 C 1141.40625 419.421875 1127.050781 428.894531 1113.058594 438.859375 C 1104.226562 445.144531 1095.53125 451.617188 1086.984375 458.28125 C 1071.105469 470.664062 1055.742188 483.703125 1040.9375 497.339844 C 1036.800781 501.148438 1032.695312 505.011719 1028.652344 508.914062 C 1026.667969 508.097656 1024.496094 507.640625 1022.167969 507.640625 C 1016.351562 507.640625 1010.699219 510.871094 1007.433594 515.644531 L 924.777344 516.035156 C 925.332031 513.191406 926.386719 509.304688 927.019531 506.476562 C 932.863281 480.449219 942.042969 455.210938 953.863281 431.304688 C 965.753906 407.265625 980.300781 384.582031 996.84375 363.472656 C 1013.636719 342.042969 1032.488281 322.238281 1052.878906 304.199219 C 1073.707031 285.773438 1096.171875 268.742188 1120.125 254.597656 C 1145.707031 239.496094 1174.621094 227.53125 1204.804688 228.171875 C 1211.128906 228.308594 1217.589844 228.757812 1223.574219 230.949219 C 1228.140625 232.621094 1232.898438 235.332031 1235.355469 239.714844 C 1238.230469 244.824219 1236.597656 250.386719 1233.488281 254.96875 C 1229.457031 260.90625 1224.339844 266.253906 1219.191406 271.21875 C 1208.71875 281.34375 1196.863281 289.929688 1184.859375 298.121094 C 1172.457031 306.574219 1159.914062 314.804688 1147.710938 323.550781 C 1123.132812 341.167969 1099.542969 360.144531 1077.035156 380.328125 C 1054.675781 400.367188 1033.40625 421.613281 1013.332031 443.933594 C 994.121094 465.300781 976.039062 487.667969 959.140625 510.894531 C 962.789062 507.058594 966.460938 503.222656 970.140625 499.421875 C 976.503906 492.859375 982.902344 486.339844 989.371094 479.882812 C 990.433594 478.8125 991.5 477.746094 992.570312 476.675781 C 1005.058594 464.253906 1017.757812 452.054688 1030.683594 440.105469 C 1051.34375 421.050781 1072.605469 402.648438 1094.621094 385.171875 C 1116.40625 367.871094 1138.921875 351.460938 1162.222656 336.242188 C 1174.023438 328.539062 1186.015625 321.148438 1198.203125 314.085938 C 1210.726562 306.839844 1223.449219 299.847656 1236.792969 294.210938 C 1260.679688 284.109375 1286.632812 276.035156 1311.828125 285.492188 C 1313.015625 285.933594 1317.125 288.84375 1318.820312 291.089844 C 1318.996094 291.335938 1319.175781 291.582031 1319.363281 291.84375 C 1325.191406 300.300781 1329.039062 318.046875 1301.480469 334.742188 " fill-opacity="1" fill-rule="nonzero"/></g><path fill="#697052" d="M 1319.363281 291.84375 C 1288.277344 303.753906 1257.503906 316.605469 1227.867188 331.804688 C 1197.128906 347.570312 1167.652344 365.9375 1140.984375 387.957031 C 1140.539062 388.332031 1139.894531 387.691406 1140.351562 387.320312 C 1155.273438 374.984375 1171.082031 363.753906 1187.515625 353.515625 C 1216.902344 335.222656 1248.140625 320.101562 1280 306.648438 C 1292.839844 301.230469 1305.800781 296.074219 1318.820312 291.089844 C 1318.996094 291.335938 1319.175781 291.582031 1319.363281 291.84375 " fill-opacity="1" fill-rule="nonzero"/><path fill="#697052" d="M 1264.15625 452.910156 C 1264.15625 453.21875 1264.148438 453.527344 1264.128906 453.828125 C 1262.710938 453.800781 1261.300781 453.789062 1259.878906 453.78125 C 1234.453125 453.625 1209.40625 455.71875 1184.414062 460.417969 C 1159.714844 465.054688 1135.1875 470.65625 1110.609375 475.894531 C 1110.039062 476.011719 1109.792969 475.136719 1110.363281 475.011719 C 1124.53125 472.003906 1138.695312 468.980469 1152.855469 465.964844 C 1177.210938 460.78125 1201.59375 455.589844 1226.480469 453.828125 C 1239.019531 452.945312 1251.585938 452.746094 1264.15625 452.910156 " fill-opacity="1" fill-rule="nonzero"/><path fill="#401d1d" d="M 975.957031 741.113281 L 975.039062 741.125 C 975.316406 726.804688 976.039062 699.769531 976.855469 685.453125 C 980.03125 629.96875 984.59375 573.132812 969.441406 518.882812 C 969.277344 518.3125 970.164062 518.070312 970.316406 518.636719 C 974.4375 533.394531 977.148438 548.484375 978.792969 563.707031 C 984.707031 618.546875 977.023438 686.230469 975.957031 741.113281 " fill-opacity="1" fill-rule="nonzero"/><path fill="#401d1d" d="M 799.644531 590.246094 C 798.457031 606.648438 796.679688 623.011719 795.144531 639.390625 C 792.226562 670.625 788.320312 711.53125 785.285156 743.796875 L 784.378906 743.808594 C 786.109375 725.488281 788.566406 699.875 790.128906 683.164062 C 791.660156 666.90625 793.179688 650.644531 794.707031 634.375 C 796.210938 618.359375 798.027344 602.335938 799 586.28125 C 799.953125 570.46875 799.277344 554.816406 795.15625 539.46875 C 791.171875 524.628906 784.886719 510.546875 778.636719 496.5625 C 778.402344 496.027344 779.203125 495.597656 779.4375 496.136719 C 786.394531 511.699219 793.425781 527.425781 797.253906 544.121094 C 800.730469 559.292969 800.761719 574.789062 799.644531 590.246094 " fill-opacity="1" fill-rule="nonzero"/><path fill="#b8a59c" d="M 760.039062 590.066406 C 759.808594 591.070312 759.574219 592.136719 759.320312 593.265625 C 758.554688 596.691406 757.683594 600.625 756.730469 604.972656 C 748.351562 643.265625 733.644531 713.03125 726.660156 744.410156 L 713.878906 744.542969 C 720.871094 713.242188 735.320312 644.667969 743.777344 605.972656 C 744.796875 601.332031 745.722656 597.101562 746.542969 593.441406 C 746.839844 592.101562 747.125 590.84375 747.386719 589.664062 C 747.488281 589.246094 747.578125 588.828125 747.671875 588.40625 C 751.144531 589.148438 756.972656 590.15625 760.039062 590.066406 " fill-opacity="1" fill-rule="nonzero"/><path fill="#b8a59c" d="M 1103.855469 587.882812 C 1103.246094 590.601562 1102.554688 593.671875 1101.800781 597.046875 C 1101.027344 600.527344 1100.191406 604.328125 1099.296875 608.390625 C 1090.835938 646.828125 1077.609375 708.375 1070.386719 740.835938 L 1070.375 740.835938 L 1058.527344 740.953125 C 1065.753906 708.292969 1080.109375 641.257812 1087.195312 609.328125 C 1087.8125 606.5625 1088.367188 604.054688 1088.867188 601.867188 C 1089.222656 600.3125 1089.570312 598.746094 1089.921875 597.191406 C 1090.648438 593.972656 1091.375 590.765625 1092.101562 587.546875 C 1098.75 587.738281 1097.207031 587.835938 1103.855469 587.882812 " fill-opacity="1" fill-rule="nonzero"/><path fill="#99867e" d="M 746.542969 593.433594 C 745.726562 597.097656 744.796875 601.328125 743.777344 605.96875 C 748.097656 605.632812 752.410156 605.308594 756.730469 604.96875 C 757.683594 600.625 758.554688 596.6875 759.320312 593.261719 C 755.066406 593.316406 750.800781 593.351562 746.542969 593.433594 " fill-opacity="1" fill-rule="nonzero"/><path fill="#99867e" d="M 1089.921875 597.1875 C 1089.570312 598.742188 1089.222656 600.304688 1088.867188 601.863281 C 1088.367188 604.050781 1087.8125 606.558594 1087.195312 609.328125 C 1089.796875 609.128906 1092.398438 608.925781 1094.996094 608.722656 C 1096.425781 608.617188 1097.863281 608.507812 1099.300781 608.386719 C 1100.191406 604.324219 1101.027344 600.527344 1101.800781 597.042969 C 1097.839844 597.097656 1093.875 597.132812 1089.921875 597.1875 " fill-opacity="1" fill-rule="nonzero"/><path fill="#8a3c27" d="M 496.734375 566.738281 L 274.953125 581.070312 C 293.847656 562.925781 277.507812 592.683594 277.480469 592.796875 L 676.6875 590.070312 L 1151.160156 586.652344 L 496.734375 566.738281 " fill-opacity="1" fill-rule="nonzero"/><path fill="#401d1d" d="M 398.628906 581.589844 C 397.855469 588.03125 397.484375 587.128906 396.117188 593.484375 L 1147.707031 598.546875 C 1148.929688 592.105469 1149.449219 592.980469 1151.160156 586.652344 L 398.628906 581.589844 " fill-opacity="1" fill-rule="nonzero"/><path fill="#f28f68" d="M 771.171875 568.953125 C 766.644531 568.875 753.421875 568.796875 743.242188 568.71875 C 738.339844 568.683594 734.148438 568.648438 731.972656 568.609375 C 727.519531 548.910156 723.058594 529.207031 718.617188 509.503906 C 717.386719 504.089844 716.160156 498.667969 714.941406 493.25 C 713.445312 486.683594 711.964844 480.121094 710.480469 473.554688 C 710.234375 472.503906 710 471.445312 709.765625 470.390625 C 712.832031 470.484375 715.910156 470.382812 718.976562 470.117188 C 722.335938 469.828125 745.03125 469.464844 748.507812 468.738281 C 748.597656 469.15625 748.695312 469.574219 748.792969 469.992188 C 750.589844 477.972656 752.402344 485.949219 754.199219 493.929688 C 755.199219 498.367188 756.210938 502.804688 757.210938 507.242188 C 761.859375 527.808594 766.515625 548.386719 771.171875 568.953125 " fill-opacity="1" fill-rule="nonzero"/><path fill="#401d1d" d="M 754.109375 493.628906 C 741.867188 493.035156 729.609375 492.792969 717.355469 492.910156 C 716.519531 492.917969 715.683594 492.929688 714.84375 492.945312 C 716.066406 498.367188 717.296875 503.785156 718.519531 509.199219 C 718.921875 509.175781 719.308594 509.144531 719.710938 509.121094 C 727.242188 508.59375 734.785156 508.121094 742.320312 507.691406 C 747.25 507.421875 752.179688 507.167969 757.121094 506.9375 C 756.121094 502.5 755.109375 498.066406 754.109375 493.628906 " fill-opacity="1" fill-rule="nonzero"/><path fill="#f28f68" d="M 966.433594 252.667969 L 966.433594 252.695312 C 966.410156 252.851562 966.390625 253.003906 966.355469 253.167969 L 963.925781 265.605469 L 953.683594 318.15625 L 920.203125 489.996094 C 919.316406 494.585938 915.296875 497.894531 910.609375 497.894531 L 558.835938 497.894531 C 553.636719 497.894531 549.726562 493.160156 550.726562 488.046875 L 597.453125 248.226562 C 598.21875 244.34375 601.617188 241.53125 605.574219 241.53125 L 956.769531 241.53125 C 957.738281 241.53125 958.667969 241.667969 959.539062 241.933594 C 964.070312 243.269531 967.132812 247.777344 966.433594 252.667969 " fill-opacity="1" fill-rule="nonzero"/><path fill="#ffffff" d="M 952.425781 247.367188 L 911.484375 458.023438 L 561.664062 458.023438 L 602.609375 247.367188 L 952.425781 247.367188 " fill-opacity="1" fill-rule="nonzero"/><path fill="#b36242" d="M 772.328125 576.507812 L 695.933594 575.378906 L 694.015625 565.203125 L 770.78125 566.335938 L 772.328125 576.507812 " fill-opacity="1" fill-rule="nonzero"/><path fill="#b36242" d="M 770.699219 566.925781 C 768.109375 566.859375 765.503906 566.78125 762.90625 566.738281 L 747.363281 497.894531 L 755.097656 497.894531 C 755.710938 501.140625 768.542969 555.507812 770.699219 566.925781 " fill-opacity="1" fill-rule="nonzero"/><path fill="#401d1d" d="M 719.429688 578.0625 L 496.042969 578.0625 L 499.964844 566.738281 L 723.351562 566.738281 L 719.429688 578.0625 " fill-opacity="1" fill-rule="nonzero"/><path fill="#7d443b" d="M 491.425781 696.050781 C 490.382812 693.765625 486.933594 693.265625 484.804688 692.601562 C 481.320312 691.523438 477.804688 690.582031 474.246094 689.792969 C 468.945312 688.617188 463.570312 687.78125 458.160156 687.285156 C 456.558594 687.121094 454.949219 687.003906 453.335938 686.910156 C 445.246094 686.453125 437.09375 686.738281 429.066406 687.816406 C 423.78125 688.527344 416.824219 690.773438 417.097656 697.328125 C 417.113281 697.8125 417.722656 697.894531 417.933594 697.582031 C 417.578125 700.523438 417.214844 703.457031 416.832031 706.394531 C 416.578125 708.394531 416.304688 710.386719 416.03125 712.386719 C 414.414062 724.195312 412.546875 735.972656 410.429688 747.695312 L 484.542969 746.925781 C 485.03125 744.097656 485.425781 741.242188 485.878906 738.425781 C 486.988281 731.515625 488.0625 724.597656 489.089844 717.675781 C 489.207031 716.929688 489.316406 716.195312 489.425781 715.449219 C 489.988281 711.613281 490.546875 707.773438 491.082031 703.953125 C 491.417969 701.613281 492.464844 698.339844 491.425781 696.050781 " fill-opacity="1" fill-rule="nonzero"/><g clip-path="url(#576603f67a)"><path fill="#b8a59c" d="M 252.636719 656.371094 C 249.898438 668.460938 247.171875 680.566406 244.433594 692.65625 C 243.304688 697.636719 242.175781 702.632812 241.050781 707.613281 C 240.714844 709.113281 240.367188 710.621094 240.03125 712.121094 C 237.210938 724.605469 234.382812 737.082031 231.5625 749.5625 L 218.796875 749.703125 C 221.632812 737.171875 224.460938 724.652344 227.289062 712.121094 C 231.519531 693.398438 235.757812 674.683594 239.984375 655.972656 C 240.085938 655.554688 240.175781 655.132812 240.265625 654.71875 C 243.742188 655.453125 249.574219 656.460938 252.636719 656.371094 " fill-opacity="1" fill-rule="nonzero"/></g><path fill="#b8a59c" d="M 413.632812 653.941406 C 411.292969 664.289062 408.945312 674.644531 406.609375 684.996094 C 405.199219 691.222656 403.789062 697.449219 402.390625 703.675781 C 401.726562 706.574219 401.070312 709.484375 400.417969 712.386719 C 397.742188 724.222656 395.058594 736.050781 392.386719 747.890625 L 379.617188 748.027344 C 382.300781 736.132812 384.992188 724.25 387.675781 712.367188 C 388.519531 708.640625 389.367188 704.910156 390.203125 701.191406 C 391.421875 695.808594 392.640625 690.4375 393.851562 685.0625 C 396.230469 674.554688 398.605469 664.054688 400.980469 653.542969 C 401.070312 653.121094 401.171875 652.707031 401.261719 652.289062 C 404.734375 653.019531 410.566406 654.023438 413.632812 653.941406 " fill-opacity="1" fill-rule="nonzero"/><path fill="#401d1d" d="M 602.816406 704.464844 C 602.417969 717.085938 599.816406 734.324219 597.726562 745.75 L 581.683594 745.917969 C 581.65625 745.90625 581.636719 745.90625 581.609375 745.917969 C 577.800781 745.84375 574.042969 745.898438 570.316406 746.03125 L 570.242188 746.03125 L 504.488281 746.726562 C 506.613281 738.503906 511.117188 725.796875 509.472656 719.160156 C 508.34375 719.179688 507.378906 719.179688 506.613281 719.179688 C 502.796875 719.136719 496.628906 718.578125 489.089844 717.675781 C 476.886719 716.207031 461.085938 713.84375 445.800781 711.347656 C 435.484375 709.675781 425.410156 707.949219 416.832031 706.394531 C 411.277344 705.382812 406.34375 704.457031 402.390625 703.675781 C 399.871094 703.167969 397.75 702.730469 396.113281 702.355469 C 394.160156 701.910156 392.183594 701.53125 390.203125 701.191406 C 380.273438 699.484375 369.984375 698.828125 360.027344 697.226562 C 357.261719 696.792969 354.523438 696.273438 351.832031 695.640625 C 343.691406 693.742188 335.917969 690.773438 328.886719 685.59375 L 328.875 685.59375 C 327.921875 684.882812 326.976562 684.140625 326.050781 683.34375 C 317.207031 675.808594 312.5625 665.753906 311.578125 654.234375 C 310.988281 647.359375 311.261719 640.398438 311.46875 633.511719 C 311.6875 626.292969 312.042969 619.082031 312.40625 611.875 C 312.378906 611.886719 312.351562 611.886719 312.332031 611.890625 C 311.769531 612.054688 311.523438 611.183594 312.085938 611.023438 C 322.09375 608.082031 332.132812 605.253906 342.199219 602.53125 C 344.546875 601.890625 346.894531 601.265625 349.238281 600.636719 C 366.292969 596.117188 383.429688 591.898438 400.625 588.003906 C 407.273438 586.492188 413.921875 585.027344 420.585938 583.621094 C 424.097656 582.875 430.492188 580.535156 433.222656 584.230469 C 434.566406 586.046875 434.21875 588.65625 434.175781 590.769531 C 434.109375 593.953125 434.039062 597.136719 433.964844 600.320312 C 433.902344 603.496094 433.003906 608.246094 434.503906 611.191406 C 435.894531 613.941406 439.386719 614.839844 442.078125 615.761719 C 467.015625 624.304688 566.59375 648.039062 585.59375 662.664062 C 594.324219 669.382812 603.753906 675.464844 602.816406 704.464844 " fill-opacity="1" fill-rule="nonzero"/><path fill="#401d1d" d="M 770.191406 558.574219 C 766.570312 556.6875 745.027344 559.207031 744.757812 559.269531 C 735.589844 561.363281 729.878906 569.464844 727.910156 578.667969 C 727.847656 578.960938 728.003906 579.265625 728.324219 579.261719 C 750.402344 578.859375 762.585938 580.289062 782.148438 579.617188 C 782.335938 579.605469 782.546875 579.511719 782.597656 579.300781 C 784.84375 570 777.546875 562.40625 770.191406 558.574219 " fill-opacity="1" fill-rule="nonzero"/><path fill="#bf6541" d="M 785.75 558.308594 C 783.15625 559.550781 780.332031 559.648438 777.515625 559.71875 C 770.128906 559.917969 761.96875 559.347656 755.808594 558.429688 C 755.882812 559.5 755.929688 560.582031 755.875 561.675781 C 755.738281 564.992188 752.113281 579.160156 747.636719 582.558594 C 745.769531 583.984375 744.640625 581.648438 744.488281 579.816406 C 742.988281 583.324219 741.050781 586.148438 738.742188 585.667969 C 738.570312 585.976562 738.367188 586.257812 738.132812 586.511719 C 736.882812 587.898438 735.019531 587.503906 734.511719 585.730469 C 734.136719 584.425781 734.226562 582.902344 734.128906 581.558594 C 733.964844 579.484375 733.8125 577.402344 733.648438 575.332031 C 733.484375 573.238281 732.949219 566.433594 731.929688 565.722656 C 726.234375 564.078125 713.339844 560.894531 707.890625 558.5625 C 705.808594 557.6875 703.988281 556.554688 702.882812 554.527344 C 702.796875 554.371094 701.933594 553.039062 701.863281 552.882812 C 697.546875 552.949219 693.992188 553.101562 690.0625 553.347656 C 686.574219 553.546875 682.789062 553.816406 677.925781 554.136719 C 676.828125 554.210938 675.675781 554.28125 674.460938 554.355469 C 674.1875 554.371094 675.265625 553.0625 675.304688 552.804688 C 675.960938 548.34375 677.160156 544.046875 678.871094 539.894531 C 678.640625 539.695312 678.714844 539.199219 679.113281 539.1875 L 679.25 539.1875 C 679.324219 539.164062 679.402344 539.164062 679.480469 539.183594 C 680.070312 539.171875 680.648438 539.152344 681.246094 539.140625 C 683.71875 539.074219 686.183594 538.988281 688.648438 538.882812 C 692.722656 538.707031 696.796875 538.472656 700.871094 538.171875 C 704.292969 537.917969 707.738281 537.433594 711.164062 537.429688 C 714.375 537.417969 717.214844 538.332031 720.195312 539.445312 C 733.328125 544.371094 764.980469 552.128906 767.507812 552.429688 C 773.109375 553.09375 776.183594 552.917969 780.6875 552.484375 C 781.949219 552.363281 783.332031 552.21875 784.910156 552.074219 C 785.550781 552.007812 786.316406 551.9375 787.019531 551.992188 C 788.128906 552.074219 789.136719 552.472656 789.394531 553.789062 C 789.824219 556 787.425781 557.519531 785.75 558.308594 " fill-opacity="1" fill-rule="nonzero"/><path fill="#bf6541" d="M 480.730469 392.992188 C 470.464844 386.949219 459.441406 382.246094 447.941406 379.007812 C 459.132812 360.820312 470.539062 342.769531 482.164062 324.859375 C 492.859375 329.707031 503.878906 334.503906 513.226562 341.621094 C 502.199219 358.617188 491.371094 375.746094 480.730469 392.992188 " fill-opacity="1" fill-rule="nonzero"/><path fill="#bf6541" d="M 555.351562 314.855469 C 554.132812 311.355469 545.027344 297.660156 543.144531 293.867188 C 542.894531 293.367188 542.140625 293.703125 542.304688 294.191406 C 542.25 294.210938 542.195312 294.246094 542.148438 294.289062 C 541.933594 293.988281 541.355469 294.027344 541.324219 294.496094 C 540.59375 305.214844 542.527344 315.792969 544.527344 326.28125 C 544.585938 326.597656 544.894531 326.699219 545.167969 326.609375 C 550.125 324.992188 557.65625 321.472656 555.351562 314.855469 " fill-opacity="1" fill-rule="nonzero"/><path fill="#f7e9e1" d="M 550.777344 293.636719 C 550.742188 293.636719 550.707031 293.636719 550.671875 293.640625 C 549.671875 293.71875 548.675781 295.035156 548.003906 297.160156 C 547.226562 299.613281 546.949219 302.84375 547.21875 306.246094 C 547.484375 309.644531 548.265625 312.789062 549.417969 315.09375 C 550.414062 317.085938 551.589844 318.238281 552.605469 318.148438 C 553.605469 318.070312 554.601562 316.757812 555.273438 314.632812 C 556.050781 312.175781 556.328125 308.949219 556.058594 305.546875 C 555.5 298.445312 552.851562 293.636719 550.777344 293.636719 Z M 552.5 319.972656 C 550.773438 319.972656 549.109375 318.539062 547.792969 315.90625 C 546.539062 313.394531 545.6875 310.015625 545.402344 306.386719 C 545.117188 302.757812 545.425781 299.285156 546.269531 296.613281 C 547.199219 293.671875 548.710938 291.96875 550.53125 291.828125 C 554.085938 291.566406 557.242188 297.382812 557.875 305.402344 C 558.160156 309.03125 557.851562 312.503906 557.007812 315.179688 C 556.078125 318.121094 554.566406 319.820312 552.75 319.964844 C 552.667969 319.96875 552.585938 319.972656 552.5 319.972656 " fill-opacity="1" fill-rule="nonzero"/><path fill="#bf6541" d="M 546.523438 338.265625 C 546.523438 338.257812 546.523438 338.257812 546.523438 338.246094 C 546.609375 336.511719 546.726562 333.847656 546.769531 331.742188 C 546.785156 331.242188 546.789062 330.765625 546.789062 330.359375 C 546.8125 323.496094 546.351562 316.597656 545.773438 309.8125 C 545.296875 304.105469 544.761719 275.128906 544.320312 272.070312 C 544.285156 271.832031 544.113281 271.722656 543.921875 271.71875 C 543.871094 271.574219 543.761719 271.464844 543.550781 271.476562 C 526.546875 272.054688 506.820312 278.78125 492.285156 287.648438 C 488.644531 289.863281 485.132812 292.300781 481.824219 295 C 478.851562 297.429688 476.074219 300.21875 474.9375 303.992188 C 473.632812 308.285156 473.566406 313.292969 473.667969 317.742188 C 473.761719 321.675781 474.335938 325.613281 475.792969 329.289062 C 477.460938 333.464844 480.203125 336.835938 483.941406 339.335938 C 487.417969 341.679688 494.820312 348.628906 494.882812 348.394531 C 500.476562 354.078125 506.398438 359.769531 513.824219 362.886719 C 520.753906 365.777344 530.292969 366.621094 536.796875 362.398438 C 543.917969 357.769531 545.53125 350.179688 546.246094 342.148438 C 546.363281 340.851562 546.449219 339.5625 546.523438 338.265625 " fill-opacity="1" fill-rule="nonzero"/><path fill="#401d1d" d="M 542.785156 304.132812 C 542.761719 307.941406 541.179688 311.015625 539.253906 311.003906 C 537.328125 310.992188 535.789062 307.894531 535.8125 304.085938 C 535.839844 300.277344 537.421875 297.203125 539.347656 297.214844 C 541.269531 297.226562 542.8125 300.324219 542.785156 304.132812 " fill-opacity="1" fill-rule="nonzero"/><path fill="#733220" d="M 544.820312 283.035156 C 540.726562 283.210938 534.511719 284.265625 531.316406 286.261719 C 528.703125 287.902344 528.828125 290.675781 532.21875 291.933594 C 534.304688 292.714844 536.765625 292.550781 538.960938 292.601562 C 540.535156 292.644531 542.121094 292.679688 543.699219 292.714844 C 543.769531 292.714844 544.523438 292.765625 545.113281 292.59375 C 545 288.84375 545.273438 286.265625 544.820312 283.035156 " fill-opacity="1" fill-rule="nonzero"/><path fill="#9c4725" d="M 688.648438 538.882812 C 686.183594 538.988281 683.71875 539.074219 681.246094 539.140625 C 680.160156 543.183594 679.148438 547.273438 678.46875 551.40625 C 678.359375 552.039062 678.09375 553.0625 677.925781 554.136719 C 682.789062 553.816406 686.574219 553.546875 690.0625 553.347656 C 689.59375 548.53125 689.121094 543.703125 688.648438 538.882812 " fill-opacity="1" fill-rule="nonzero"/><path fill="#ffffff" d="M 546.769531 331.742188 C 543.613281 333.855469 539.371094 333.417969 535.472656 332.882812 C 532.902344 332.535156 532.761719 334.59375 534.691406 335.84375 C 537.519531 337.695312 542.300781 339.617188 545.738281 338.589844 C 546.019531 338.503906 546.285156 338.390625 546.523438 338.246094 C 546.609375 336.511719 546.726562 333.847656 546.769531 331.742188 " fill-opacity="1" fill-rule="nonzero"/><path fill="#733220" d="M 552.714844 256.101562 C 550.878906 255.347656 548.265625 255.375 547.402344 253.195312 C 546.773438 251.601562 546.730469 249.570312 546.421875 247.878906 C 545.921875 245.128906 545.5625 242.078125 543.847656 239.746094 C 539.949219 234.441406 530.988281 236.273438 525.800781 238.828125 C 525.308594 234.140625 520.796875 231.25 516.183594 231.148438 C 510.453125 231.023438 504.644531 234.046875 500.472656 237.730469 C 498.136719 239.789062 496.5 242.378906 494.347656 244.59375 C 491.53125 247.484375 488 247.886719 484.125 247.605469 C 481.222656 247.390625 478.289062 246.910156 475.390625 247.375 C 472.625 247.820312 470.125 249.1875 468.011719 250.964844 C 463.074219 255.128906 460.375 261.375 460.328125 267.730469 C 455.234375 269.582031 449.527344 272.378906 448.941406 278.285156 C 448.796875 279.742188 449.199219 281.015625 449.621094 282.390625 C 450.386719 284.890625 450.003906 286.949219 448.445312 289.070312 C 446.453125 291.773438 443.453125 293.636719 442.117188 296.808594 C 440.261719 301.222656 441.542969 306.796875 445.335938 309.828125 C 450.25 313.761719 456.777344 312.972656 462.570312 311.5625 C 459.332031 314.46875 456.289062 320.074219 461.054688 322.261719 C 462.449219 322.902344 464.011719 322.992188 465.449219 323.488281 C 467.625 324.238281 469.265625 325.882812 470.324219 327.863281 C 472.585938 332.09375 472.199219 333.367188 471.363281 337.871094 C 470.925781 338.792969 470.863281 339.789062 471.628906 340.765625 C 473.210938 342.789062 478.238281 342.15625 480.582031 341.976562 C 482.246094 341.84375 483.859375 341.378906 485.496094 341.085938 C 487.777344 340.675781 489.835938 340.96875 492.105469 340.882812 C 494.925781 340.78125 494.816406 337.984375 494.761719 335.757812 C 494.664062 332.070312 495.644531 330.390625 494.714844 326.839844 C 493.671875 322.828125 489.511719 318.429688 490.769531 314.316406 C 492.0625 310.09375 495.101562 309.414062 499.125 308.074219 C 502.378906 306.992188 505.863281 306.636719 508.996094 305.167969 C 514.820312 302.441406 515.738281 297.117188 515.058594 291.667969 C 519.441406 292.492188 524.125 291.671875 527.785156 288.941406 C 530.914062 286.605469 532.921875 283.191406 533.714844 279.511719 C 536.933594 279.550781 540.40625 278.621094 542.925781 277.828125 C 548.460938 276.09375 555.386719 272.710938 558.210938 267.40625 C 560.835938 262.484375 557.355469 258.007812 552.714844 256.101562 " fill-opacity="1" fill-rule="nonzero"/><path fill="#f7e9e1" d="M 556.890625 301.515625 C 546.863281 302.503906 536.832031 303.492188 526.804688 304.480469 C 515.75 305.570312 504.621094 307.117188 493.496094 306.730469 C 492.335938 306.691406 492.058594 308.488281 493.230469 308.53125 C 503.941406 308.902344 514.609375 307.511719 525.25 306.460938 C 535.871094 305.414062 546.492188 304.367188 557.109375 303.320312 C 556.976562 302.730469 556.898438 302.125 556.890625 301.515625 " fill-opacity="1" fill-rule="nonzero"/><path fill="#bf6541" d="M 505.867188 308.277344 C 500.871094 302.882812 492.070312 303.324219 490.085938 310.066406 C 488.117188 316.75 494.09375 325.03125 499.613281 328.230469 C 502.636719 329.984375 506.140625 329.960938 509.34375 328.628906 C 512.625 327.261719 513.664062 324.515625 514.1875 321.203125 C 515.1875 314.828125 513.773438 309.957031 505.867188 308.277344 " fill-opacity="1" fill-rule="nonzero"/><path fill="#b8a59c" d="M 685.078125 535.855469 C 677.359375 536.257812 666.222656 537.609375 658.953125 534.609375 C 655.683594 533.261719 645.15625 526.195312 641.21875 526.625 C 633.199219 527.503906 584.832031 523.246094 581.257812 512.460938 C 581.289062 512.378906 581.296875 512.285156 581.25 512.179688 C 577.011719 502.105469 566.90625 478.429688 562.671875 468.359375 C 558.726562 458.984375 554.949219 449.511719 550.542969 440.347656 C 542.746094 424.140625 531.984375 409.898438 517.699219 398.863281 C 513.117188 395.320312 508.253906 392.175781 503.179688 389.421875 C 502.121094 386.4375 501.0625 383.457031 500.003906 380.472656 C 498.996094 377.632812 498.257812 373.042969 495.800781 370.917969 C 493.117188 368.597656 459.691406 358.429688 450.433594 359.507812 C 443.316406 360.335938 441.777344 366.515625 437.566406 371.117188 C 422.761719 374.179688 363.558594 384.269531 355.660156 387.320312 C 347.601562 390.433594 340.441406 395.09375 333.929688 400.730469 C 326.570312 407.105469 319.890625 414.28125 313.046875 421.199219 C 305.730469 428.59375 298.414062 435.992188 291.097656 443.390625 C 284.554688 450.003906 277.207031 456.386719 271.992188 464.15625 C 267.890625 470.261719 263.488281 480.03125 266.414062 487.027344 C 277.976562 514.632812 303.652344 511.277344 315.375 510.011719 C 313.382812 514.203125 306.203125 545.890625 302.992188 555.902344 C 299.953125 565.371094 297.707031 581.46875 301.269531 591.125 C 304.71875 600.476562 311.527344 608.363281 313.367188 618.328125 C 313.414062 618.574219 313.703125 618.699219 313.925781 618.644531 C 348.851562 610.558594 384.28125 604.703125 419.957031 601.191406 C 424.382812 600.757812 428.820312 600.410156 433.25 599.992188 C 436.484375 599.679688 437.6875 598.328125 439.035156 595.429688 C 442.425781 588.152344 484.558594 511.871094 486.996094 506.023438 C 494.761719 513.164062 533.65625 572.902344 540.914062 578.886719 C 543.777344 581.25 546.914062 583.417969 550.496094 584.507812 C 554.53125 585.730469 614.742188 593.414062 637.46875 590.433594 C 641.03125 589.964844 644.25 587.886719 646.875 585.371094 C 649.539062 582.820312 651.308594 579.527344 653.28125 576.449219 C 655.894531 572.382812 659.042969 569.34375 663.421875 567.238281 C 667.496094 565.28125 671.886719 564.09375 676.019531 562.265625 C 677.75 561.5 679.503906 560.644531 680.609375 559.050781 C 681.882812 557.207031 682.113281 554.832031 682.507812 552.683594 C 683.515625 547.265625 684.515625 541.847656 685.519531 536.429688 C 685.570312 536.160156 685.398438 535.839844 685.078125 535.855469 " fill-opacity="1" fill-rule="nonzero"/><path fill="#9c4725" d="M 506.253906 319.742188 C 501.910156 319.394531 502.378906 314.675781 501.308594 311.59375 C 500.800781 310.125 500.03125 308.972656 498.769531 308.0625 C 498.296875 307.71875 497.839844 308.507812 498.3125 308.847656 C 502.679688 312.011719 499.582031 320.121094 506.253906 320.652344 C 506.835938 320.699219 506.832031 319.789062 506.253906 319.742188 " fill-opacity="1" fill-rule="nonzero"/><path fill="#9c4725" d="M 740.585938 559.898438 C 739.265625 557.96875 736.636719 557.070312 734.648438 556.03125 C 734.128906 555.761719 733.667969 556.546875 734.1875 556.816406 C 736.398438 557.96875 739.445312 558.964844 740.382812 561.5 C 741.046875 563.285156 740.871094 565.386719 740.800781 567.253906 C 740.632812 571.929688 740.015625 576.5625 739.03125 581.128906 C 738.910156 581.699219 739.785156 581.945312 739.910156 581.371094 C 741.070312 575.960938 741.847656 570.34375 741.757812 564.796875 C 741.730469 563.121094 741.5625 561.320312 740.585938 559.898438 " fill-opacity="1" fill-rule="nonzero"/><path fill="#9c4725" d="M 748.089844 555.246094 C 746.855469 553.460938 744.261719 552.539062 742.445312 551.503906 C 741.9375 551.210938 741.476562 551.996094 741.988281 552.289062 C 743.964844 553.414062 746.988281 554.476562 747.816406 556.765625 C 748.636719 559.023438 748.292969 561.96875 747.988281 564.285156 C 747.347656 569.125 745.960938 573.878906 744.722656 578.589844 C 744.570312 579.160156 745.453125 579.402344 745.601562 578.835938 C 747.085938 573.183594 748.9375 567.351562 749.144531 561.472656 C 749.214844 559.503906 749.277344 556.957031 748.089844 555.246094 " fill-opacity="1" fill-rule="nonzero"/><path fill="#9c7968" d="M 478.710938 490.710938 C 468.335938 474.847656 460.929688 457.234375 456.84375 438.730469 C 456.71875 438.15625 455.839844 438.398438 455.964844 438.96875 C 460.066406 457.546875 467.511719 475.246094 477.921875 491.167969 C 478.242188 491.65625 479.03125 491.199219 478.710938 490.710938 " fill-opacity="1" fill-rule="nonzero"/><path fill="#9c7968" d="M 479.792969 503.390625 C 474.796875 499.3125 469.957031 495.058594 465.28125 490.617188 C 464.855469 490.214844 464.210938 490.855469 464.636719 491.257812 C 469.316406 495.699219 474.152344 499.957031 479.152344 504.03125 C 479.601562 504.398438 480.25 503.757812 479.792969 503.390625 " fill-opacity="1" fill-rule="nonzero"/><path fill="#9c7968" d="M 576.054688 526.003906 C 574.398438 534.375 572.375 542.660156 569.992188 550.851562 C 569.828125 551.417969 570.707031 551.65625 570.871094 551.097656 C 573.253906 542.902344 575.273438 534.617188 576.929688 526.246094 C 577.046875 525.675781 576.167969 525.429688 576.054688 526.003906 " fill-opacity="1" fill-rule="nonzero"/><path fill="#9c7968" d="M 657.691406 539.449219 C 657.636719 538.867188 656.726562 538.863281 656.78125 539.449219 C 657.421875 546.226562 656.324219 552.933594 653.511719 559.140625 C 653.273438 559.667969 654.058594 560.132812 654.296875 559.597656 C 657.179688 553.242188 658.347656 546.394531 657.691406 539.449219 " fill-opacity="1" fill-rule="nonzero"/><path fill="#9c7968" d="M 344.097656 424.78125 C 335.132812 442.433594 328.394531 461.140625 324.054688 480.460938 C 323.929688 481.027344 324.804688 481.273438 324.933594 480.699219 C 329.253906 461.457031 335.953125 442.824219 344.882812 425.238281 C 345.144531 424.71875 344.359375 424.257812 344.097656 424.78125 " fill-opacity="1" fill-rule="nonzero"/><path fill="#9c7968" d="M 492.378906 383.734375 C 482.003906 380.027344 471.097656 378.210938 460.082031 378.34375 C 459.496094 378.347656 459.496094 379.257812 460.082031 379.25 C 471.019531 379.121094 481.832031 380.929688 492.136719 384.609375 C 492.691406 384.808594 492.925781 383.929688 492.378906 383.734375 " fill-opacity="1" fill-rule="nonzero"/><path fill="#9c7968" d="M 435.539062 575.351562 C 419.507812 587.605469 400.902344 596.144531 381.152344 600.296875 C 380.578125 600.417969 380.820312 601.292969 381.394531 601.171875 C 401.210938 597.007812 419.910156 588.4375 435.996094 576.140625 C 436.457031 575.785156 436.003906 575 435.539062 575.351562 " fill-opacity="1" fill-rule="nonzero"/><path fill="#7d443b" d="M 546.585938 731.488281 C 536.941406 706.496094 520.996094 684.195312 500.429688 667.015625 C 499.984375 666.640625 499.335938 667.28125 499.785156 667.660156 C 520.226562 684.734375 536.125 706.882812 545.710938 731.734375 C 545.917969 732.273438 546.800781 732.039062 546.585938 731.488281 " fill-opacity="1" fill-rule="nonzero"/><path fill="#b35e22" d="M 494.667969 302.078125 C 490.535156 300.496094 485.980469 300.363281 481.773438 301.785156 C 479.835938 302.4375 478.035156 303.402344 476.414062 304.648438 C 473.90625 306.578125 471.792969 309.222656 468.332031 309.039062 C 467.75 309.007812 467.75 309.917969 468.332031 309.949219 C 473.019531 310.195312 475.773438 305.679688 479.558594 303.707031 C 484.171875 301.304688 489.601562 301.109375 494.429688 302.957031 C 494.972656 303.164062 495.210938 302.285156 494.667969 302.078125 " fill-opacity="1" fill-rule="nonzero"/><path fill="#b35e22" d="M 533.378906 270.886719 C 529.589844 261.585938 519.199219 257.117188 509.839844 260.890625 C 509.300781 261.105469 509.539062 261.988281 510.078125 261.769531 C 518.929688 258.199219 528.890625 262.261719 532.503906 271.128906 C 532.71875 271.664062 533.601562 271.429688 533.378906 270.886719 " fill-opacity="1" fill-rule="nonzero"/><path fill="#b35e22" d="M 485.128906 276.726562 C 478.542969 273.476562 470.617188 274.472656 465.035156 279.242188 C 464.589844 279.625 465.238281 280.265625 465.679688 279.886719 C 470.933594 275.398438 478.472656 274.457031 484.671875 277.511719 C 485.195312 277.769531 485.65625 276.984375 485.128906 276.726562 " fill-opacity="1" fill-rule="nonzero"/><path fill="#9c4725" d="M 784.910156 552.074219 C 783.332031 552.21875 781.949219 552.363281 780.6875 552.484375 C 780.546875 553.347656 780.722656 554.171875 781.722656 554.464844 C 783.113281 554.867188 785.25 554.636719 786.277344 553.546875 C 786.640625 553.164062 786.914062 552.59375 787.019531 551.992188 C 786.316406 551.9375 785.550781 552.007812 784.910156 552.074219 " fill-opacity="1" fill-rule="nonzero"/><path fill="#9c7968" d="M 670.886719 552.609375 C 667.371094 552.609375 667.367188 558.058594 670.886719 558.058594 C 674.394531 558.058594 674.402344 552.609375 670.886719 552.609375 " fill-opacity="1" fill-rule="nonzero"/><path fill="#ffffff" d="M 383.238281 409.816406 C 383.230469 409.453125 382.863281 409.273438 382.554688 409.421875 C 378.5625 411.367188 374.660156 413.480469 370.839844 415.738281 C 371.160156 415.894531 371.480469 416.0625 371.796875 416.226562 C 374.933594 414.390625 378.132812 412.667969 381.382812 411.039062 C 378.925781 415.664062 372.996094 424.8125 370.484375 428.742188 C 370.167969 429.238281 370.957031 429.695312 371.269531 429.203125 C 373.84375 425.171875 380.007812 415.664062 382.347656 411.160156 C 382.40625 414.792969 382.332031 418.417969 382.117188 422.046875 C 382.410156 422.207031 382.707031 422.363281 383 422.523438 C 383.265625 418.289062 383.347656 414.054688 383.238281 409.816406 " fill-opacity="1" fill-rule="nonzero"/><path fill="#ffffff" d="M 450.910156 371.910156 C 450.902344 371.546875 450.539062 371.367188 450.230469 371.515625 C 446.238281 373.464844 442.335938 375.574219 438.515625 377.835938 C 438.835938 377.992188 439.152344 378.160156 439.472656 378.324219 C 442.609375 376.484375 445.808594 374.765625 449.058594 373.132812 C 446.601562 377.761719 440.671875 386.90625 438.160156 390.839844 C 437.84375 391.335938 438.628906 391.792969 438.945312 391.300781 C 441.519531 387.269531 447.683594 377.757812 450.019531 373.257812 C 450.078125 376.886719 450.003906 380.515625 449.792969 384.140625 C 450.085938 384.300781 450.378906 384.457031 450.675781 384.617188 C 450.941406 380.382812 451.019531 376.148438 450.910156 371.910156 " fill-opacity="1" fill-rule="nonzero"/><path fill="#ffffff" d="M 429.5625 453.234375 C 429.550781 452.871094 429.1875 452.691406 428.878906 452.84375 C 424.882812 454.785156 420.984375 456.898438 417.164062 459.160156 C 417.484375 459.316406 417.800781 459.484375 418.121094 459.648438 C 421.253906 457.808594 424.457031 456.085938 427.707031 454.457031 C 425.246094 459.085938 419.320312 468.230469 416.808594 472.164062 C 416.492188 472.660156 417.277344 473.117188 417.59375 472.625 C 420.167969 468.59375 426.332031 459.082031 428.667969 454.582031 C 428.726562 458.210938 428.65625 461.839844 428.441406 465.464844 C 428.734375 465.625 429.027344 465.78125 429.324219 465.941406 C 429.589844 461.707031 429.667969 457.472656 429.5625 453.234375 " fill-opacity="1" fill-rule="nonzero"/><path fill="#ffffff" d="M 527.863281 424.996094 C 527.855469 424.632812 527.488281 424.453125 527.179688 424.601562 C 523.1875 426.546875 519.289062 428.660156 515.464844 430.917969 C 515.789062 431.078125 516.105469 431.246094 516.421875 431.410156 C 519.558594 429.570312 522.761719 427.847656 526.011719 426.21875 C 523.554688 430.847656 517.625 439.992188 515.109375 443.925781 C 514.792969 444.421875 515.582031 444.878906 515.894531 444.386719 C 518.472656 440.351562 524.636719 430.84375 526.972656 426.339844 C 527.03125 429.972656 526.957031 433.601562 526.742188 437.226562 C 527.035156 437.386719 527.332031 437.542969 527.628906 437.703125 C 527.890625 433.46875 527.972656 429.234375 527.863281 424.996094 " fill-opacity="1" fill-rule="nonzero"/><path fill="#ffffff" d="M 539.804688 499.625 C 539.796875 499.265625 539.429688 499.082031 539.121094 499.234375 C 535.128906 501.175781 531.226562 503.289062 527.40625 505.546875 C 527.726562 505.707031 528.042969 505.871094 528.363281 506.039062 C 531.5 504.199219 534.699219 502.480469 537.953125 500.847656 C 535.492188 505.476562 529.5625 514.625 527.050781 518.554688 C 526.734375 519.050781 527.519531 519.507812 527.835938 519.011719 C 530.410156 514.984375 536.574219 505.472656 538.914062 500.96875 C 538.972656 504.601562 538.898438 508.226562 538.683594 511.855469 C 538.976562 512.015625 539.273438 512.171875 539.566406 512.332031 C 539.832031 508.097656 539.914062 503.863281 539.804688 499.625 " fill-opacity="1" fill-rule="nonzero"/><path fill="#ffffff" d="M 315.042969 441.742188 C 315.03125 441.378906 314.667969 441.195312 314.359375 441.347656 C 310.367188 443.292969 306.464844 445.402344 302.644531 447.664062 C 302.964844 447.820312 303.28125 447.988281 303.601562 448.152344 C 306.738281 446.316406 309.9375 444.59375 313.1875 442.960938 C 310.730469 447.589844 304.800781 456.738281 302.289062 460.667969 C 301.972656 461.164062 302.757812 461.621094 303.074219 461.128906 C 305.648438 457.097656 311.8125 447.589844 314.148438 443.085938 C 314.207031 446.714844 314.132812 450.34375 313.917969 453.972656 C 314.214844 454.128906 314.507812 454.289062 314.804688 454.445312 C 315.070312 450.214844 315.148438 445.980469 315.042969 441.742188 " fill-opacity="1" fill-rule="nonzero"/><path fill="#ffffff" d="M 634.640625 536.933594 C 634.632812 536.570312 634.265625 536.390625 633.957031 536.539062 C 629.964844 538.484375 626.0625 540.597656 622.242188 542.855469 C 622.5625 543.011719 622.882812 543.183594 623.199219 543.347656 C 626.335938 541.507812 629.535156 539.785156 632.785156 538.152344 C 630.328125 542.78125 624.398438 551.929688 621.886719 555.859375 C 621.570312 556.355469 622.359375 556.816406 622.671875 556.320312 C 625.25 552.289062 631.410156 542.78125 633.75 538.277344 C 633.804688 541.90625 633.734375 545.535156 633.519531 549.164062 C 633.8125 549.324219 634.109375 549.476562 634.402344 549.636719 C 634.667969 545.40625 634.75 541.171875 634.640625 536.933594 " fill-opacity="1" fill-rule="nonzero"/><path fill="#ffffff" d="M 592.472656 565.6875 C 592.464844 565.328125 592.097656 565.140625 591.789062 565.296875 C 587.796875 567.238281 583.894531 569.351562 580.074219 571.609375 C 580.394531 571.769531 580.714844 571.9375 581.03125 572.101562 C 584.167969 570.265625 587.367188 568.539062 590.617188 566.910156 C 588.160156 571.539062 582.230469 580.683594 579.71875 584.621094 C 579.402344 585.113281 580.1875 585.566406 580.503906 585.078125 C 583.082031 581.042969 589.242188 571.53125 591.582031 567.03125 C 591.640625 570.664062 591.566406 574.292969 591.351562 577.917969 C 591.644531 578.074219 591.941406 578.234375 592.234375 578.394531 C 592.5 574.164062 592.582031 569.929688 592.472656 565.6875 " fill-opacity="1" fill-rule="nonzero"/><path fill="#ffffff" d="M 363.304688 488.316406 C 363.296875 487.957031 362.929688 487.773438 362.621094 487.925781 C 358.628906 489.871094 354.726562 491.980469 350.90625 494.242188 C 351.226562 494.398438 351.546875 494.566406 351.863281 494.734375 C 355 492.894531 358.199219 491.167969 361.449219 489.542969 C 358.992188 494.167969 353.0625 503.3125 350.550781 507.246094 C 350.234375 507.742188 351.023438 508.199219 351.335938 507.707031 C 353.914062 503.675781 360.074219 494.167969 362.414062 489.664062 C 362.472656 493.292969 362.398438 496.921875 362.183594 500.550781 C 362.476562 500.710938 362.773438 500.863281 363.066406 501.023438 C 363.332031 496.789062 363.414062 492.558594 363.304688 488.316406 " fill-opacity="1" fill-rule="nonzero"/><path fill="#ffffff" d="M 429.5625 534.535156 C 429.550781 534.175781 429.1875 533.996094 428.878906 534.144531 C 424.882812 536.089844 420.984375 538.199219 417.164062 540.460938 C 417.484375 540.617188 417.800781 540.785156 418.121094 540.953125 C 421.253906 539.113281 424.457031 537.390625 427.707031 535.757812 C 425.246094 540.386719 419.320312 549.53125 416.808594 553.464844 C 416.492188 553.960938 417.277344 554.414062 417.59375 553.925781 C 420.167969 549.894531 426.332031 540.386719 428.667969 535.882812 C 428.726562 539.515625 428.65625 543.140625 428.441406 546.769531 C 428.734375 546.929688 429.027344 547.085938 429.324219 547.246094 C 429.589844 543.011719 429.667969 538.777344 429.5625 534.535156 " fill-opacity="1" fill-rule="nonzero"/><path fill="#ffffff" d="M 363.304688 569.578125 C 363.296875 569.21875 362.929688 569.035156 362.621094 569.183594 C 358.628906 571.136719 354.726562 573.242188 350.90625 575.503906 C 351.226562 575.664062 351.546875 575.824219 351.863281 575.992188 C 355 574.152344 358.199219 572.433594 361.449219 570.804688 C 358.992188 575.429688 353.0625 584.578125 350.550781 588.511719 C 350.234375 589.007812 351.023438 589.460938 351.335938 588.96875 C 353.914062 584.9375 360.074219 575.429688 362.414062 570.925781 C 362.472656 574.558594 362.398438 578.179688 362.183594 581.808594 C 362.476562 581.96875 362.773438 582.128906 363.066406 582.285156 C 363.332031 578.050781 363.414062 573.816406 363.304688 569.578125 " fill-opacity="1" fill-rule="nonzero"/><path fill="#44479c" d="M 458.160156 687.285156 C 458.105469 687.230469 458.039062 687.175781 457.984375 687.128906 C 455.894531 685.4375 452.945312 685.195312 450.335938 685 C 447.746094 684.820312 430.164062 684.84375 406.609375 684.996094 C 406.019531 684.996094 405.417969 685 404.816406 685 C 401.28125 685.019531 397.613281 685.042969 393.851562 685.0625 C 381.515625 685.152344 368.15625 685.265625 354.789062 685.375 C 352.46875 685.394531 350.160156 685.410156 347.847656 685.429688 C 341.445312 685.484375 335.089844 685.539062 328.886719 685.59375 L 328.875 685.59375 C 297.898438 685.875 270.871094 686.148438 262.140625 686.230469 C 261.867188 686.230469 261.605469 686.230469 261.367188 686.238281 C 260.59375 686.238281 260.011719 686.25 259.648438 686.25 C 254.199219 686.292969 249.027344 686.664062 245.824219 690.628906 C 245.304688 691.277344 244.84375 691.957031 244.433594 692.65625 C 243.1875 694.785156 242.386719 697.136719 241.8125 699.492188 C 241.222656 701.9375 240.203125 705.121094 241.050781 707.613281 C 241.058594 707.660156 241.078125 707.714844 241.09375 707.757812 C 241.976562 710.136719 244.578125 710.613281 246.878906 711.03125 C 247.800781 711.191406 256.554688 711.378906 269.878906 711.546875 C 270.207031 711.558594 270.542969 711.558594 270.890625 711.566406 L 270.898438 711.566406 C 287.097656 711.777344 309.707031 711.976562 333.125 712.121094 C 351.734375 712.242188 370.859375 712.332031 387.675781 712.367188 C 392.09375 712.386719 396.359375 712.390625 400.417969 712.386719 C 406.082031 712.390625 411.328125 712.390625 416.03125 712.386719 C 427.289062 712.347656 435.382812 712.265625 438.421875 712.132812 C 440.832031 712.011719 443.351562 711.8125 445.800781 711.347656 C 448.746094 710.792969 451.582031 709.867188 454.039062 708.257812 C 454.066406 708.238281 454.101562 708.21875 454.128906 708.203125 C 459.324219 704.765625 460.167969 699.136719 460.222656 693.445312 C 460.25 691.183594 459.976562 688.871094 458.160156 687.285156 " fill-opacity="1" fill-rule="nonzero"/><g clip-path="url(#c238a4f163)"><path fill="#f7e9e1" d="M 360.027344 697.226562 C 359.445312 696.207031 358.890625 695.164062 358.371094 694.121094 C 356.953125 691.265625 355.761719 688.347656 354.789062 685.375 C 352.707031 679.117188 351.523438 672.675781 350.894531 666.207031 C 349.1875 648.636719 351.359375 631.003906 350.449219 613.410156 C 350.230469 609.136719 349.8125 604.882812 349.238281 600.636719 C 347.394531 587.117188 343.902344 573.761719 339.738281 560.605469 C 329.566406 528.539062 315.351562 497.117188 310.171875 464.160156 L 150.558594 464.160156 C 153.285156 481.472656 158.535156 498.453125 164.363281 515.25 C 175.886719 548.425781 189.820312 581.597656 190.964844 616.402344 C 191.539062 633.613281 189.527344 650.878906 191.484375 668.0625 C 192.457031 676.636719 194.492188 685.195312 198.386719 693.230469 C 201.878906 700.433594 206.835938 707.417969 214.503906 712.121094 L 373.476562 712.121094 C 367.539062 708.183594 363.253906 702.890625 360.027344 697.226562 " fill-opacity="1" fill-rule="nonzero"/></g><path fill="#e8dfdf" d="M 271.171875 712.117188 L 270.164062 712.117188 C 269.035156 709.898438 267.988281 707.632812 267.015625 705.335938 C 258.632812 685.460938 258.804688 664.203125 258.46875 643.015625 C 258.285156 631.582031 257.613281 620.230469 255.558594 608.960938 C 253.554688 598.007812 250.589844 587.257812 247.28125 576.632812 C 240.40625 554.574219 232.75 532.746094 225.417969 510.824219 C 220.214844 495.269531 215.011719 479.710938 209.800781 464.15625 L 210.757812 464.15625 C 216.761719 482.066406 222.742188 499.976562 228.738281 517.886719 C 235.9375 539.417969 243.625 560.859375 250.054688 582.628906 C 253.238281 593.433594 255.957031 604.390625 257.550781 615.546875 C 259.050781 626.070312 259.3125 636.679688 259.441406 647.300781 C 259.570312 658.457031 259.613281 669.664062 261.195312 680.742188 C 262.6875 691.097656 265.734375 701.070312 270.34375 710.460938 C 270.617188 711.015625 270.890625 711.5625 271.171875 712.117188 " fill-opacity="1" fill-rule="nonzero"/><path fill="#44479c" d="M 360.027344 697.226562 C 359.445312 696.207031 358.890625 695.164062 358.371094 694.121094 C 356.953125 691.265625 355.761719 688.347656 354.789062 685.375 C 352.707031 679.117188 351.523438 672.675781 350.894531 666.207031 C 349.1875 648.636719 351.359375 631.003906 350.449219 613.410156 C 350.230469 609.136719 349.8125 604.882812 349.238281 600.636719 C 347.394531 587.117188 343.902344 573.761719 339.738281 560.605469 C 329.566406 528.539062 315.351562 497.117188 310.171875 464.160156 L 301.429688 464.160156 C 305.6875 476.886719 308.585938 493.71875 312.851562 506.449219 C 320.628906 529.734375 333.433594 558.902344 340.828125 594.816406 C 341.292969 597.074219 341.757812 599.679688 342.199219 602.53125 C 344.101562 614.710938 345.601562 631.058594 344.839844 640.878906 C 343.320312 660.347656 344.109375 673.464844 347.847656 685.429688 C 348.921875 688.890625 350.242188 692.246094 351.832031 695.640625 C 354.289062 700.910156 357.378906 706.25 361.152344 712.121094 L 373.476562 712.121094 C 367.539062 708.183594 363.253906 702.890625 360.027344 697.226562 " fill-opacity="1" fill-rule="nonzero"/><path fill="#c95838" d="M 697.957031 275.8125 L 685.375 275.8125 L 686.257812 271.277344 L 698.835938 271.277344 L 697.957031 275.8125 " fill-opacity="1" fill-rule="nonzero"/><path fill="#ffffff" d="M 865.054688 275.8125 L 852.472656 275.8125 L 853.359375 271.277344 L 865.9375 271.277344 L 865.054688 275.8125 " fill-opacity="1" fill-rule="nonzero"/><path fill="#d1a38c" d="M 711.371094 275.8125 L 704.246094 275.8125 L 705.128906 271.277344 L 712.25 271.277344 L 711.371094 275.8125 " fill-opacity="1" fill-rule="nonzero"/><path fill="#ccb6b6" d="M 737.144531 275.8125 L 716.375 275.8125 L 717.253906 271.277344 L 738.023438 271.277344 L 737.144531 275.8125 " fill-opacity="1" fill-rule="nonzero"/><path fill="#632e29" d="M 801.484375 275.8125 L 746.160156 275.8125 L 747.042969 271.277344 L 802.363281 271.277344 L 801.484375 275.8125 " fill-opacity="1" fill-rule="nonzero"/><path fill="#632e29" d="M 847.414062 275.8125 L 809.367188 275.8125 L 810.25 271.277344 L 848.292969 271.277344 L 847.414062 275.8125 " fill-opacity="1" fill-rule="nonzero"/><path fill="#d1a38c" d="M 724.699219 330.628906 L 717.574219 330.628906 L 718.457031 326.09375 L 725.578125 326.09375 L 724.699219 330.628906 " fill-opacity="1" fill-rule="nonzero"/><path fill="#ccb6b6" d="M 755.015625 330.628906 L 729.699219 330.628906 L 730.578125 326.09375 L 755.894531 326.09375 L 755.015625 330.628906 " fill-opacity="1" fill-rule="nonzero"/><path fill="#632e29" d="M 843.003906 330.628906 L 764.035156 330.628906 L 764.914062 326.09375 L 843.882812 326.09375 L 843.003906 330.628906 " fill-opacity="1" fill-rule="nonzero"/><path fill="#c95838" d="M 712.515625 330.628906 L 699.9375 330.628906 L 700.816406 326.09375 L 713.398438 326.09375 L 712.515625 330.628906 " fill-opacity="1" fill-rule="nonzero"/><path fill="#ffffff" d="M 861.789062 330.785156 L 849.207031 330.785156 L 850.09375 326.25 L 862.671875 326.25 L 861.789062 330.785156 " fill-opacity="1" fill-rule="nonzero"/><path fill="#d1a38c" d="M 722.144531 350.898438 L 715.019531 350.898438 L 715.898438 346.363281 L 723.023438 346.363281 L 722.144531 350.898438 " fill-opacity="1" fill-rule="nonzero"/><path fill="#ccb6b6" d="M 765.191406 350.898438 L 727.144531 350.898438 L 728.023438 346.363281 L 766.070312 346.363281 L 765.191406 350.898438 " fill-opacity="1" fill-rule="nonzero"/><path fill="#632e29" d="M 811.347656 350.898438 L 774.207031 350.898438 L 775.085938 346.363281 L 812.230469 346.363281 L 811.347656 350.898438 " fill-opacity="1" fill-rule="nonzero"/><path fill="#632e29" d="M 870.660156 350.898438 L 816.246094 350.898438 L 817.125 346.363281 L 871.539062 346.363281 L 870.660156 350.898438 " fill-opacity="1" fill-rule="nonzero"/><path fill="#c95838" d="M 709.816406 350.898438 L 697.238281 350.898438 L 698.117188 346.363281 L 710.695312 346.363281 L 709.816406 350.898438 " fill-opacity="1" fill-rule="nonzero"/><path fill="#ffffff" d="M 887.519531 350.898438 L 874.9375 350.898438 L 875.816406 346.363281 L 888.398438 346.363281 L 887.519531 350.898438 " fill-opacity="1" fill-rule="nonzero"/><path fill="#d1a38c" d="M 709.179688 405.117188 L 702.058594 405.117188 L 702.941406 400.582031 L 710.066406 400.582031 L 709.179688 405.117188 " fill-opacity="1" fill-rule="nonzero"/><path fill="#ccb6b6" d="M 780.425781 405.117188 L 714.183594 405.117188 L 715.066406 400.582031 L 781.308594 400.582031 L 780.425781 405.117188 " fill-opacity="1" fill-rule="nonzero"/><path fill="#632e29" d="M 822.03125 405.117188 L 784.894531 405.117188 L 785.777344 400.582031 L 822.917969 400.582031 L 822.03125 405.117188 " fill-opacity="1" fill-rule="nonzero"/><path fill="#632e29" d="M 854.972656 405.117188 L 826.933594 405.117188 L 827.8125 400.582031 L 855.859375 400.582031 L 854.972656 405.117188 " fill-opacity="1" fill-rule="nonzero"/><path fill="#632e29" d="M 890.0625 405.117188 L 860.203125 405.117188 L 861.082031 400.582031 L 890.945312 400.582031 L 890.0625 405.117188 " fill-opacity="1" fill-rule="nonzero"/><path fill="#c95838" d="M 696.074219 405.117188 L 683.496094 405.117188 L 684.375 400.582031 L 696.957031 400.582031 L 696.074219 405.117188 " fill-opacity="1" fill-rule="nonzero"/><path fill="#ffffff" d="M 907.878906 405.117188 L 895.296875 405.117188 L 896.175781 400.582031 L 908.761719 400.582031 L 907.878906 405.117188 " fill-opacity="1" fill-rule="nonzero"/><path fill="#d1a38c" d="M 705.847656 424.925781 L 698.722656 424.925781 L 699.601562 420.390625 L 706.726562 420.390625 L 705.847656 424.925781 " fill-opacity="1" fill-rule="nonzero"/><path fill="#ccb6b6" d="M 736.164062 424.925781 L 710.851562 424.925781 L 711.730469 420.390625 L 737.042969 420.390625 L 736.164062 424.925781 " fill-opacity="1" fill-rule="nonzero"/><path fill="#632e29" d="M 807.785156 424.925781 L 741.542969 424.925781 L 742.425781 420.390625 L 808.664062 420.390625 L 807.785156 424.925781 " fill-opacity="1" fill-rule="nonzero"/><path fill="#632e29" d="M 830.71875 424.925781 L 812.683594 424.925781 L 813.5625 420.390625 L 831.601562 420.390625 L 830.71875 424.925781 " fill-opacity="1" fill-rule="nonzero"/><path fill="#632e29" d="M 869.445312 424.925781 L 835.949219 424.925781 L 836.828125 420.390625 L 870.324219 420.390625 L 869.445312 424.925781 " fill-opacity="1" fill-rule="nonzero"/><path fill="#c95838" d="M 692.695312 424.925781 L 680.113281 424.925781 L 680.996094 420.390625 L 693.574219 420.390625 L 692.695312 424.925781 " fill-opacity="1" fill-rule="nonzero"/><path fill="#ffffff" d="M 888.800781 424.925781 L 876.21875 424.925781 L 877.097656 420.390625 L 889.679688 420.390625 L 888.800781 424.925781 " fill-opacity="1" fill-rule="nonzero"/><path fill="#d1a38c" d="M 707.925781 294.492188 L 700.800781 294.492188 L 701.6875 289.957031 L 708.808594 289.957031 L 707.925781 294.492188 " fill-opacity="1" fill-rule="nonzero"/><path fill="#ccb6b6" d="M 779.171875 294.492188 L 712.929688 294.492188 L 713.808594 289.957031 L 780.050781 289.957031 L 779.171875 294.492188 " fill-opacity="1" fill-rule="nonzero"/><path fill="#632e29" d="M 859.433594 294.492188 L 788.644531 294.492188 L 789.527344 289.957031 L 860.3125 289.957031 L 859.433594 294.492188 " fill-opacity="1" fill-rule="nonzero"/><path fill="#c95838" d="M 695.328125 294.492188 L 682.746094 294.492188 L 683.625 289.957031 L 696.207031 289.957031 L 695.328125 294.492188 " fill-opacity="1" fill-rule="nonzero"/><path fill="#ffffff" d="M 877.410156 294.492188 L 864.824219 294.492188 L 865.710938 289.957031 L 878.289062 289.957031 L 877.410156 294.492188 " fill-opacity="1" fill-rule="nonzero"/><path fill="#d1a38c" d="M 720.070312 370.046875 L 712.945312 370.046875 L 713.824219 365.511719 L 720.949219 365.511719 L 720.070312 370.046875 " fill-opacity="1" fill-rule="nonzero"/><path fill="#ccb6b6" d="M 741.292969 370.046875 L 725.074219 370.046875 L 725.953125 365.511719 L 742.171875 365.511719 L 741.292969 370.046875 " fill-opacity="1" fill-rule="nonzero"/><path fill="#632e29" d="M 857.023438 370.046875 L 800.785156 370.046875 L 801.667969 365.511719 L 857.902344 365.511719 L 857.023438 370.046875 " fill-opacity="1" fill-rule="nonzero"/><path fill="#632e29" d="M 795.246094 370.046875 L 748.105469 370.046875 L 748.988281 365.511719 L 796.125 365.511719 L 795.246094 370.046875 " fill-opacity="1" fill-rule="nonzero"/><path fill="#ffffff" d="M 874.765625 370.046875 L 862.1875 370.046875 L 863.066406 365.511719 L 875.644531 365.511719 L 874.765625 370.046875 " fill-opacity="1" fill-rule="nonzero"/><path fill="#c95838" d="M 704.03125 312.597656 L 691.449219 312.597656 L 692.328125 308.066406 L 704.914062 308.066406 L 704.03125 312.597656 " fill-opacity="1" fill-rule="nonzero"/><path fill="#c95838" d="M 707.492188 369.722656 L 694.90625 369.722656 L 695.789062 365.1875 L 708.371094 365.1875 L 707.492188 369.722656 " fill-opacity="1" fill-rule="nonzero"/><path fill="#c95838" d="M 686.507812 386.785156 L 673.929688 386.785156 L 674.8125 382.25 L 687.394531 382.25 L 686.507812 386.785156 " fill-opacity="1" fill-rule="nonzero"/><path fill="#5154a6" d="M 757.132812 67.359375 C 752.304688 67.359375 748.132812 70.933594 747.207031 75.855469 L 725.167969 206.507812 C 724.574219 209.691406 725.398438 212.925781 727.4375 215.382812 C 729.359375 217.699219 732.152344 219.027344 735.097656 219.027344 L 952.015625 219.027344 C 956.84375 219.027344 961.019531 215.453125 961.945312 210.53125 L 985.796875 79.878906 C 986.394531 76.699219 985.566406 73.46875 983.53125 71.007812 C 981.605469 68.6875 978.8125 67.359375 975.867188 67.359375 Z M 735.097656 219.9375 C 731.882812 219.9375 728.832031 218.488281 726.738281 215.964844 C 724.523438 213.296875 723.628906 209.792969 724.273438 206.34375 L 746.3125 75.691406 C 747.316406 70.339844 751.867188 66.457031 757.132812 66.457031 L 975.867188 66.457031 C 979.085938 66.457031 982.132812 67.902344 984.226562 70.429688 C 986.441406 73.09375 987.335938 76.601562 986.691406 80.050781 L 962.839844 210.703125 C 961.835938 216.054688 957.277344 219.9375 952.015625 219.9375 L 735.097656 219.9375 " fill-opacity="1" fill-rule="nonzero"/><path fill="#401d1d" d="M 978.402344 68.058594 L 952.644531 200.261719 C 951.734375 204.910156 947.671875 208.253906 942.941406 208.253906 L 723.359375 208.253906 C 717.148438 208.253906 712.476562 202.589844 713.664062 196.488281 L 716.207031 183.46875 L 739.421875 64.285156 C 740.332031 59.648438 744.394531 56.304688 749.125 56.304688 L 968.707031 56.304688 C 974.921875 56.304688 979.597656 61.96875 978.402344 68.058594 " fill-opacity="1" fill-rule="nonzero"/><path fill="#a5c4d9" d="M 784.40625 75.808594 L 777.28125 75.808594 L 778.167969 71.269531 L 785.289062 71.269531 L 784.40625 75.808594 " fill-opacity="1" fill-rule="nonzero"/><path fill="#a5c4d9" d="M 771.722656 75.808594 L 757.324219 75.808594 L 758.203125 71.269531 L 772.601562 71.269531 L 771.722656 75.808594 " fill-opacity="1" fill-rule="nonzero"/><path fill="#a5c4d9" d="M 827.457031 75.808594 L 789.410156 75.808594 L 790.289062 71.269531 L 828.335938 71.269531 L 827.457031 75.808594 " fill-opacity="1" fill-rule="nonzero"/><path fill="#a5c4d9" d="M 874.519531 75.808594 L 836.476562 75.808594 L 837.355469 71.269531 L 875.402344 71.269531 L 874.519531 75.808594 " fill-opacity="1" fill-rule="nonzero"/><path fill="#a5c4d9" d="M 920.449219 75.808594 L 882.402344 75.808594 L 883.285156 71.269531 L 921.328125 71.269531 L 920.449219 75.808594 " fill-opacity="1" fill-rule="nonzero"/><path fill="#a5c4d9" d="M 786.160156 133.226562 L 779.039062 133.226562 L 779.917969 128.695312 L 787.039062 128.695312 L 786.160156 133.226562 " fill-opacity="1" fill-rule="nonzero"/><path fill="#a5c4d9" d="M 809.203125 133.226562 L 791.164062 133.226562 L 792.046875 128.695312 L 810.082031 128.695312 L 809.203125 133.226562 " fill-opacity="1" fill-rule="nonzero"/><path fill="#a5c4d9" d="M 861.722656 133.226562 L 818.222656 133.226562 L 819.101562 128.695312 L 862.605469 128.695312 L 861.722656 133.226562 " fill-opacity="1" fill-rule="nonzero"/><path fill="#a5c4d9" d="M 883.753906 133.226562 L 866.621094 133.226562 L 867.503906 128.695312 L 884.632812 128.695312 L 883.753906 133.226562 " fill-opacity="1" fill-rule="nonzero"/><path fill="#a5c4d9" d="M 904.285156 133.226562 L 888.980469 133.226562 L 889.859375 128.695312 L 905.171875 128.695312 L 904.285156 133.226562 " fill-opacity="1" fill-rule="nonzero"/><path fill="#a5c4d9" d="M 772.703125 133.226562 L 758.300781 133.226562 L 759.183594 128.695312 L 773.582031 128.695312 L 772.703125 133.226562 " fill-opacity="1" fill-rule="nonzero"/><path fill="#a5c4d9" d="M 763.503906 187.644531 L 756.378906 187.644531 L 757.257812 183.113281 L 764.382812 183.113281 L 763.503906 187.644531 " fill-opacity="1" fill-rule="nonzero"/><path fill="#a5c4d9" d="M 834.746094 187.644531 L 768.507812 187.644531 L 769.386719 183.113281 L 835.625 183.113281 L 834.746094 187.644531 " fill-opacity="1" fill-rule="nonzero"/><path fill="#a5c4d9" d="M 876.355469 187.644531 L 839.21875 187.644531 L 840.101562 183.113281 L 877.234375 183.113281 L 876.355469 187.644531 " fill-opacity="1" fill-rule="nonzero"/><path fill="#a5c4d9" d="M 898.382812 187.644531 L 881.253906 187.644531 L 882.132812 183.113281 L 899.261719 183.113281 L 898.382812 187.644531 " fill-opacity="1" fill-rule="nonzero"/><path fill="#a5c4d9" d="M 750.121094 187.644531 L 735.722656 187.644531 L 736.601562 183.113281 L 751.007812 183.113281 L 750.121094 187.644531 " fill-opacity="1" fill-rule="nonzero"/><path fill="#a5c4d9" d="M 780.707031 99.945312 L 773.582031 99.945312 L 774.460938 95.40625 L 781.585938 95.40625 L 780.707031 99.945312 " fill-opacity="1" fill-rule="nonzero"/><path fill="#a5c4d9" d="M 806.472656 99.945312 L 785.710938 99.945312 L 786.589844 95.40625 L 807.355469 95.40625 L 806.472656 99.945312 " fill-opacity="1" fill-rule="nonzero"/><path fill="#a5c4d9" d="M 892.191406 99.945312 L 815.945312 99.945312 L 816.828125 95.40625 L 893.070312 95.40625 L 892.191406 99.945312 " fill-opacity="1" fill-rule="nonzero"/><path fill="#a5c4d9" d="M 767.183594 99.945312 L 752.78125 99.945312 L 753.660156 95.40625 L 768.066406 95.40625 L 767.183594 99.945312 " fill-opacity="1" fill-rule="nonzero"/><path fill="#a5c4d9" d="M 778.953125 164.773438 L 771.828125 164.773438 L 772.707031 160.238281 L 779.832031 160.238281 L 778.953125 164.773438 " fill-opacity="1" fill-rule="nonzero"/><path fill="#a5c4d9" d="M 814.722656 164.773438 L 783.953125 164.773438 L 784.832031 160.238281 L 815.601562 160.238281 L 814.722656 164.773438 " fill-opacity="1" fill-rule="nonzero"/><path fill="#a5c4d9" d="M 884.980469 164.773438 L 859.667969 164.773438 L 860.546875 160.238281 L 885.859375 160.238281 L 884.980469 164.773438 " fill-opacity="1" fill-rule="nonzero"/><path fill="#a5c4d9" d="M 854.121094 164.773438 L 821.535156 164.773438 L 822.417969 160.238281 L 855.007812 160.238281 L 854.121094 164.773438 " fill-opacity="1" fill-rule="nonzero"/><path fill="#a5c4d9" d="M 925.078125 164.773438 L 892.492188 164.773438 L 893.371094 160.238281 L 925.957031 160.238281 L 925.078125 164.773438 " fill-opacity="1" fill-rule="nonzero"/><path fill="#a5c4d9" d="M 765.40625 164.773438 L 751.007812 164.773438 L 751.886719 160.238281 L 766.285156 160.238281 L 765.40625 164.773438 " fill-opacity="1" fill-rule="nonzero"/><path fill="#a5c4d9" d="M 777.558594 117.742188 L 763.15625 117.742188 L 764.035156 113.203125 L 778.4375 113.203125 L 777.558594 117.742188 " fill-opacity="1" fill-rule="nonzero"/><path fill="#a5c4d9" d="M 764.257812 149.332031 L 749.863281 149.332031 L 750.742188 144.800781 L 765.144531 144.800781 L 764.257812 149.332031 " fill-opacity="1" fill-rule="nonzero"/><path fill="#5154a6" d="M 554.292969 165.765625 C 549.886719 165.765625 546.078125 168.90625 545.234375 173.230469 L 541.277344 193.828125 C 540.75 196.542969 541.453125 199.320312 543.214844 201.457031 C 544.972656 203.589844 547.570312 204.816406 550.335938 204.816406 L 642.136719 204.816406 L 674.25 219.332031 L 670.828125 204.816406 L 680.078125 204.816406 C 684.484375 204.816406 688.292969 201.675781 689.132812 197.351562 L 693.09375 176.757812 C 693.621094 174.042969 692.917969 171.257812 691.160156 169.125 C 689.398438 166.992188 686.804688 165.765625 684.039062 165.765625 Z M 675.5625 220.921875 L 641.941406 205.722656 L 550.335938 205.722656 C 547.296875 205.722656 544.445312 204.378906 542.511719 202.035156 C 540.578125 199.691406 539.804688 196.636719 540.386719 193.652344 L 544.34375 173.058594 C 545.269531 168.304688 549.453125 164.863281 554.292969 164.863281 L 684.039062 164.863281 C 687.074219 164.863281 689.929688 166.199219 691.859375 168.550781 C 693.792969 170.894531 694.566406 173.949219 693.988281 176.933594 L 690.027344 197.527344 C 689.105469 202.28125 684.917969 205.722656 680.078125 205.722656 L 671.976562 205.722656 L 675.5625 220.921875 " fill-opacity="1" fill-rule="nonzero"/><path fill="#a5c4d9" d="M 592.289062 188.15625 L 572.414062 188.15625 L 573.925781 180.390625 L 593.796875 180.390625 L 592.289062 188.15625 " fill-opacity="1" fill-rule="nonzero"/><path fill="#a5c4d9" d="M 660.847656 188.15625 L 604.296875 188.15625 L 605.804688 180.390625 L 662.359375 180.390625 L 660.847656 188.15625 " fill-opacity="1" fill-rule="nonzero"/><path fill="#5154a6" d="M 1030.160156 27.511719 C 1025.757812 27.511719 1021.945312 30.652344 1021.105469 34.972656 L 1017.144531 55.574219 C 1016.617188 58.289062 1017.328125 61.066406 1019.082031 63.199219 C 1020.839844 65.335938 1023.4375 66.5625 1026.207031 66.5625 L 1041.609375 66.5625 L 1036.4375 81.078125 L 1070.300781 66.5625 L 1155.949219 66.5625 C 1160.355469 66.5625 1164.164062 63.421875 1165.003906 59.097656 L 1168.960938 38.503906 C 1169.492188 35.785156 1168.785156 33.003906 1167.027344 30.871094 C 1165.269531 28.738281 1162.671875 27.511719 1159.910156 27.511719 Z M 1034.878906 82.734375 L 1040.324219 67.46875 L 1026.207031 67.46875 C 1023.167969 67.46875 1020.316406 66.125 1018.382812 63.78125 C 1016.453125 61.4375 1015.671875 58.382812 1016.257812 55.398438 L 1020.210938 34.804688 C 1021.136719 30.050781 1025.320312 26.601562 1030.160156 26.601562 L 1159.910156 26.601562 C 1162.945312 26.601562 1165.796875 27.945312 1167.726562 30.292969 C 1169.660156 32.640625 1170.4375 35.695312 1169.851562 38.671875 L 1165.898438 59.273438 C 1164.972656 64.019531 1160.789062 67.46875 1155.949219 67.46875 L 1070.484375 67.46875 L 1034.878906 82.734375 " fill-opacity="1" fill-rule="nonzero"/><path fill="#a5c4d9" d="M 1136.589844 48.171875 L 1080.042969 48.171875 L 1081.546875 40.40625 L 1138.101562 40.40625 L 1136.589844 48.171875 " fill-opacity="1" fill-rule="nonzero"/><path fill="#a5c4d9" d="M 1071.351562 47.886719 L 1048.503906 47.886719 L 1049.902344 40.691406 L 1072.75 40.691406 L 1071.351562 47.886719 " fill-opacity="1" fill-rule="nonzero"/><path fill="#b36242" d="M 966.433594 252.667969 L 966.433594 252.695312 L 963.925781 265.605469 L 920.203125 489.996094 C 919.316406 494.585938 915.296875 497.894531 910.609375 497.894531 L 910.144531 497.894531 L 959.539062 241.933594 C 964.070312 243.269531 967.132812 247.777344 966.433594 252.667969 " fill-opacity="1" fill-rule="nonzero"/><path fill="#e8dfdf" d="M 1050.921875 584.921875 L 1024.066406 584.460938 L 1022.152344 574.28125 L 1049.378906 574.757812 L 1050.921875 584.921875 " fill-opacity="1" fill-rule="nonzero"/><path fill="#f28f68" d="M 1050.347656 579.140625 C 1047.757812 579.074219 1045.152344 578.996094 1042.554688 578.949219 C 1032.570312 578.78125 1022.570312 579.105469 1012.921875 582.402344 C 1012.558594 582.523438 1012.234375 582.6875 1011.933594 582.875 C 1009.703125 570.921875 1007.46875 558.964844 1005.238281 547.011719 C 1004.183594 541.382812 1003.136719 535.757812 1002.09375 530.136719 C 999.375 515.59375 996.65625 501.054688 993.945312 486.507812 C 997.011719 486.597656 1000.082031 486.507812 1003.160156 486.234375 C 1006.527344 485.9375 1029.25 485.582031 1032.738281 484.835938 C 1032.824219 485.257812 1032.894531 485.683594 1032.980469 486.105469 C 1035.734375 500.859375 1038.488281 515.609375 1041.246094 530.367188 C 1041.519531 531.8125 1041.785156 533.25 1042.054688 534.695312 C 1042.664062 537.972656 1043.273438 541.246094 1043.882812 544.527344 C 1046.046875 556.070312 1048.191406 567.601562 1050.347656 579.140625 " fill-opacity="1" fill-rule="nonzero"/><path fill="#401d1d" d="M 1038.59375 516.273438 C 1028.816406 515.917969 1019.035156 515.777344 1009.261719 515.867188 C 1005.988281 515.898438 1002.703125 515.953125 999.4375 516.042969 C 1000.484375 521.671875 1001.527344 527.292969 1002.589844 532.914062 C 1005.597656 532.6875 1008.609375 532.464844 1011.628906 532.253906 C 1019.15625 531.71875 1026.695312 531.242188 1034.234375 530.8125 C 1036.5625 530.683594 1038.898438 530.550781 1041.230469 530.4375 C 1040.355469 525.714844 1039.472656 520.996094 1038.59375 516.273438 " fill-opacity="1" fill-rule="nonzero"/><path fill="#f28f68" d="M 1195.96875 210.527344 L 1151.730469 443.84375 L 1138.28125 513.976562 C 1137.449219 518.261719 1133.742188 521.351562 1129.414062 521.351562 L 1128.136719 521.339844 L 922.667969 519.515625 L 982.917969 204.613281 C 983.460938 201.746094 985.957031 199.664062 988.84375 199.664062 L 1187.101562 199.664062 C 1187.746094 199.664062 1188.386719 199.738281 1188.984375 199.871094 C 1193.675781 200.871094 1196.921875 205.535156 1195.96875 210.527344 " fill-opacity="1" fill-rule="nonzero"/><path fill="#ffffff" d="M 1120.285156 512.96875 L 927.917969 511.128906 L 985.730469 205.796875 L 1178.097656 205.796875 L 1120.285156 512.96875 " fill-opacity="1" fill-rule="nonzero"/><path fill="#b36242" d="M 1195.964844 210.527344 L 1138.277344 513.976562 C 1138.324219 518.652344 1136.371094 522.53125 1129.40625 521.355469 L 1128.136719 521.347656 L 1188.980469 199.867188 C 1193.675781 200.871094 1196.917969 205.539062 1195.964844 210.527344 " fill-opacity="1" fill-rule="nonzero"/><path fill="#b36242" d="M 1051.300781 586.0625 L 1012.625 585.59375 L 975.511719 585.539062 L 973.59375 575.25 L 1010.703125 575.308594 L 1049.757812 575.785156 L 1051.300781 586.0625 " fill-opacity="1" fill-rule="nonzero"/><path fill="#b36242" d="M 1050.347656 579.140625 C 1047.757812 579.074219 1045.152344 578.996094 1042.554688 578.949219 L 1031.539062 520.398438 L 1039.324219 520.53125 C 1039.933594 523.816406 1043.273438 541.246094 1043.882812 544.527344 C 1046.046875 556.070312 1048.191406 567.601562 1050.347656 579.140625 " fill-opacity="1" fill-rule="nonzero"/><path fill="#b8a59c" d="M 1043.1875 235.316406 L 1029.695312 235.316406 L 1030.621094 230.738281 L 1044.105469 230.738281 L 1043.1875 235.316406 " fill-opacity="1" fill-rule="nonzero"/><path fill="#632e29" d="M 1072.015625 235.316406 L 1048.523438 235.316406 L 1049.441406 230.738281 L 1072.941406 230.738281 L 1072.015625 235.316406 " fill-opacity="1" fill-rule="nonzero"/><path fill="#632e29" d="M 1122.546875 235.316406 L 1099.054688 235.316406 L 1099.976562 230.738281 L 1123.472656 230.738281 L 1122.546875 235.316406 " fill-opacity="1" fill-rule="nonzero"/><path fill="#ccb6b6" d="M 1094.175781 235.316406 L 1077.953125 235.316406 L 1078.878906 230.738281 L 1095.097656 230.738281 L 1094.175781 235.316406 " fill-opacity="1" fill-rule="nonzero"/><path fill="#c95838" d="M 1023.5625 235.328125 L 1014.617188 235.328125 L 1015.535156 230.792969 L 1024.480469 230.792969 L 1023.5625 235.328125 " fill-opacity="1" fill-rule="nonzero"/><path fill="#ffffff" d="M 1137.261719 235.292969 L 1128.316406 235.292969 L 1129.242188 230.761719 L 1138.1875 230.761719 L 1137.261719 235.292969 " fill-opacity="1" fill-rule="nonzero"/><path fill="#b8a59c" d="M 1037.648438 273.363281 L 1024.160156 273.363281 L 1025.082031 268.785156 L 1038.574219 268.785156 L 1037.648438 273.363281 " fill-opacity="1" fill-rule="nonzero"/><path fill="#632e29" d="M 1062.839844 273.363281 L 1042.984375 273.363281 L 1043.90625 268.785156 L 1063.761719 268.785156 L 1062.839844 273.363281 " fill-opacity="1" fill-rule="nonzero"/><path fill="#b8a59c" d="M 1109.089844 273.363281 L 1092.871094 273.363281 L 1093.792969 268.785156 L 1110.007812 268.785156 L 1109.089844 273.363281 " fill-opacity="1" fill-rule="nonzero"/><path fill="#632e29" d="M 1089.332031 273.363281 L 1066.746094 273.363281 L 1067.671875 268.785156 L 1090.25 268.785156 L 1089.332031 273.363281 " fill-opacity="1" fill-rule="nonzero"/><path fill="#c95838" d="M 1017.492188 273.339844 L 1008.546875 273.339844 L 1009.46875 268.808594 L 1018.410156 268.808594 L 1017.492188 273.339844 " fill-opacity="1" fill-rule="nonzero"/><path fill="#ffffff" d="M 1123.5625 273.460938 L 1114.621094 273.460938 L 1115.539062 268.929688 L 1124.484375 268.929688 L 1123.5625 273.460938 " fill-opacity="1" fill-rule="nonzero"/><path fill="#b8a59c" d="M 1027.566406 328.097656 L 1014.078125 328.097656 L 1014.996094 323.515625 L 1028.492188 323.515625 L 1027.566406 328.097656 " fill-opacity="1" fill-rule="nonzero"/><path fill="#632e29" d="M 1056.398438 328.097656 L 1032.898438 328.097656 L 1033.824219 323.515625 L 1057.316406 323.515625 L 1056.398438 328.097656 " fill-opacity="1" fill-rule="nonzero"/><path fill="#632e29" d="M 1119.660156 328.097656 L 1083.433594 328.097656 L 1084.359375 323.515625 L 1120.582031 323.515625 L 1119.660156 328.097656 " fill-opacity="1" fill-rule="nonzero"/><path fill="#ccb6b6" d="M 1078.554688 328.097656 L 1062.335938 328.097656 L 1063.253906 323.515625 L 1079.476562 323.515625 L 1078.554688 328.097656 " fill-opacity="1" fill-rule="nonzero"/><path fill="#c95838" d="M 1006.71875 328.070312 L 997.773438 328.070312 L 998.691406 323.542969 L 1007.636719 323.542969 L 1006.71875 328.070312 " fill-opacity="1" fill-rule="nonzero"/><path fill="#ffffff" d="M 1134.328125 328.070312 L 1125.382812 328.070312 L 1126.308594 323.542969 L 1135.253906 323.542969 L 1134.328125 328.070312 " fill-opacity="1" fill-rule="nonzero"/><path fill="#a5c4d9" d="M 1035.105469 385.117188 L 991.601562 385.117188 L 992.523438 380.535156 L 1036.03125 380.535156 L 1035.105469 385.117188 " fill-opacity="1" fill-rule="nonzero"/><path fill="#a5c4d9" d="M 1022.722656 441.371094 L 979.222656 441.371094 L 980.140625 436.789062 L 1023.644531 436.789062 L 1022.722656 441.371094 " fill-opacity="1" fill-rule="nonzero"/><path fill="#a5c4d9" d="M 1009.988281 481.425781 L 972.851562 481.425781 L 973.777344 476.847656 L 1010.914062 476.847656 L 1009.988281 481.425781 " fill-opacity="1" fill-rule="nonzero"/><path fill="#a5c4d9" d="M 1021.917969 403.15625 L 988.421875 403.15625 L 989.339844 398.578125 L 1022.839844 398.578125 L 1021.917969 403.15625 " fill-opacity="1" fill-rule="nonzero"/><path fill="#a5c4d9" d="M 1025.394531 421.316406 L 984.621094 421.316406 L 985.546875 416.738281 L 1026.320312 416.738281 L 1025.394531 421.316406 " fill-opacity="1" fill-rule="nonzero"/><path fill="#a5c4d9" d="M 1017.847656 463.09375 L 977.070312 463.09375 L 977.996094 458.515625 L 1018.769531 458.515625 L 1017.847656 463.09375 " fill-opacity="1" fill-rule="nonzero"/><path fill="#b8a59c" d="M 1017.441406 348.398438 L 1009.410156 348.398438 L 1010.332031 343.816406 L 1018.367188 343.816406 L 1017.441406 348.398438 " fill-opacity="1" fill-rule="nonzero"/><path fill="#632e29" d="M 1071.339844 348.398438 L 1058.757812 348.398438 L 1059.679688 343.816406 L 1072.261719 343.816406 L 1071.339844 348.398438 " fill-opacity="1" fill-rule="nonzero"/><path fill="#ccb6b6" d="M 1052.96875 348.398438 L 1024.925781 348.398438 L 1025.851562 343.816406 L 1053.890625 343.816406 L 1052.96875 348.398438 " fill-opacity="1" fill-rule="nonzero"/><path fill="#c95838" d="M 1004.066406 348.125 L 995.125 348.125 L 996.050781 343.59375 L 1004.992188 343.59375 L 1004.066406 348.125 " fill-opacity="1" fill-rule="nonzero"/><path fill="#ffffff" d="M 1084.894531 348.371094 L 1075.949219 348.371094 L 1076.867188 343.839844 L 1085.8125 343.839844 L 1084.894531 348.371094 " fill-opacity="1" fill-rule="nonzero"/><path fill="#c95838" d="M 1027.921875 254.25 L 1018.976562 254.25 L 1019.902344 249.71875 L 1028.839844 249.71875 L 1027.921875 254.25 " fill-opacity="1" fill-rule="nonzero"/><path fill="#c95838" d="M 1017.316406 292.328125 L 1008.375 292.328125 L 1009.296875 287.796875 L 1018.234375 287.796875 L 1017.316406 292.328125 " fill-opacity="1" fill-rule="nonzero"/><path fill="#c95838" d="M 1025.519531 309.753906 L 1016.582031 309.753906 L 1017.5 305.226562 L 1026.445312 305.226562 L 1025.519531 309.753906 " fill-opacity="1" fill-rule="nonzero"/><path fill="#c95838" d="M 1001.269531 366.777344 L 992.332031 366.777344 L 993.25 362.246094 L 1002.191406 362.246094 L 1001.269531 366.777344 " fill-opacity="1" fill-rule="nonzero"/><path fill="#f28f68" d="M 999.527344 235.242188 L 1006.652344 235.242188 L 1007.582031 230.714844 L 1000.457031 230.714844 L 999.527344 235.242188 " fill-opacity="1" fill-rule="nonzero"/><path fill="#f28f68" d="M 996.75 253.550781 L 1003.875 253.550781 L 1004.804688 249.019531 L 997.679688 249.019531 L 996.75 253.550781 " fill-opacity="1" fill-rule="nonzero"/><path fill="#f28f68" d="M 992.53125 273.339844 L 999.652344 273.339844 L 1000.582031 268.8125 L 993.460938 268.8125 L 992.53125 273.339844 " fill-opacity="1" fill-rule="nonzero"/><path fill="#f28f68" d="M 989.75 291.644531 L 996.875 291.644531 L 997.804688 287.117188 L 990.679688 287.117188 L 989.75 291.644531 " fill-opacity="1" fill-rule="nonzero"/><path fill="#f28f68" d="M 985.925781 309.6875 L 993.050781 309.6875 L 993.984375 305.160156 L 986.855469 305.160156 L 985.925781 309.6875 " fill-opacity="1" fill-rule="nonzero"/><path fill="#f28f68" d="M 983.148438 327.992188 L 990.273438 327.992188 L 991.207031 323.464844 L 984.082031 323.464844 L 983.148438 327.992188 " fill-opacity="1" fill-rule="nonzero"/><path fill="#f28f68" d="M 978.933594 347.769531 L 986.054688 347.769531 L 986.984375 343.242188 L 979.863281 343.242188 L 978.933594 347.769531 " fill-opacity="1" fill-rule="nonzero"/><path fill="#f28f68" d="M 975.425781 366.914062 L 982.550781 366.914062 L 983.480469 362.386719 L 976.355469 362.386719 L 975.425781 366.914062 " fill-opacity="1" fill-rule="nonzero"/><path fill="#f28f68" d="M 972.648438 385.21875 L 979.773438 385.21875 L 980.703125 380.691406 L 973.578125 380.691406 L 972.648438 385.21875 " fill-opacity="1" fill-rule="nonzero"/><path fill="#f28f68" d="M 968.820312 403.261719 L 975.945312 403.261719 L 976.882812 398.734375 L 969.757812 398.734375 L 968.820312 403.261719 " fill-opacity="1" fill-rule="nonzero"/><path fill="#f28f68" d="M 966.050781 421.566406 L 973.171875 421.566406 L 974.101562 417.039062 L 966.980469 417.039062 L 966.050781 421.566406 " fill-opacity="1" fill-rule="nonzero"/><path fill="#f28f68" d="M 961.828125 441.34375 L 968.953125 441.34375 L 969.882812 436.816406 L 962.757812 436.816406 L 961.828125 441.34375 " fill-opacity="1" fill-rule="nonzero"/><path fill="#f28f68" d="M 957.917969 463.09375 L 965.042969 463.09375 L 965.980469 458.566406 L 958.847656 458.566406 L 957.917969 463.09375 " fill-opacity="1" fill-rule="nonzero"/><path fill="#f28f68" d="M 955.144531 481.402344 L 962.269531 481.402344 L 963.199219 476.875 L 956.074219 476.875 L 955.144531 481.402344 " fill-opacity="1" fill-rule="nonzero"/><path fill="#5154a6" d="M 1031 122.492188 C 1026.175781 122.492188 1021.996094 126.0625 1021.070312 130.988281 L 1018.050781 155.835938 C 1017.457031 159.019531 1018.28125 162.253906 1020.320312 164.710938 C 1022.242188 167.027344 1025.035156 168.355469 1027.980469 168.355469 L 1190.328125 168.355469 C 1195.160156 168.355469 1199.332031 164.78125 1200.257812 159.863281 L 1205.097656 135.007812 C 1205.691406 131.832031 1204.867188 128.597656 1202.828125 126.136719 C 1200.90625 123.820312 1198.113281 122.492188 1195.167969 122.492188 Z M 1027.980469 169.265625 C 1024.765625 169.265625 1021.714844 167.816406 1019.621094 165.292969 C 1017.40625 162.621094 1016.511719 159.121094 1017.160156 155.671875 L 1020.179688 130.820312 C 1021.1875 125.46875 1025.734375 121.585938 1031 121.585938 L 1195.167969 121.585938 C 1198.382812 121.585938 1201.433594 123.03125 1203.527344 125.558594 C 1205.742188 128.222656 1206.636719 131.730469 1205.992188 135.179688 L 1201.152344 160.03125 C 1200.148438 165.378906 1195.59375 169.265625 1190.328125 169.265625 L 1027.980469 169.265625 " fill-opacity="1" fill-rule="nonzero"/><path fill="#401d1d" d="M 1198.511719 126.242188 L 1193.453125 151.832031 C 1192.609375 156.160156 1188.820312 159.285156 1184.40625 159.285156 L 1016.390625 159.285156 C 1010.589844 159.285156 1006.234375 153.996094 1007.34375 148.304688 L 1012.394531 122.71875 C 1013.238281 118.390625 1017.027344 115.265625 1021.445312 115.265625 L 1189.453125 115.265625 C 1195.261719 115.265625 1199.621094 120.558594 1198.511719 126.242188 " fill-opacity="1" fill-rule="nonzero"/><path fill="#a5c4d9" d="M 1059.378906 131.480469 L 1052.257812 131.480469 L 1053.136719 126.949219 L 1060.261719 126.949219 L 1059.378906 131.480469 " fill-opacity="1" fill-rule="nonzero"/><path fill="#a5c4d9" d="M 1082.421875 131.480469 L 1064.386719 131.480469 L 1065.265625 126.949219 L 1083.304688 126.949219 L 1082.421875 131.480469 " fill-opacity="1" fill-rule="nonzero"/><path fill="#a5c4d9" d="M 1131.308594 131.480469 L 1087.804688 131.480469 L 1088.683594 126.949219 L 1132.1875 126.949219 L 1131.308594 131.480469 " fill-opacity="1" fill-rule="nonzero"/><path fill="#a5c4d9" d="M 1171.140625 131.480469 L 1136.730469 131.480469 L 1137.617188 126.949219 L 1172.023438 126.949219 L 1171.140625 131.480469 " fill-opacity="1" fill-rule="nonzero"/><path fill="#a5c4d9" d="M 1046.835938 131.625 L 1032.433594 131.625 L 1033.320312 127.089844 L 1047.71875 127.089844 L 1046.835938 131.625 " fill-opacity="1" fill-rule="nonzero"/><path fill="#a5c4d9" d="M 1057.367188 145.859375 L 1050.242188 145.859375 L 1051.128906 141.328125 L 1058.253906 141.328125 L 1057.367188 145.859375 " fill-opacity="1" fill-rule="nonzero"/><path fill="#a5c4d9" d="M 1080.410156 145.859375 L 1062.371094 145.859375 L 1063.25 141.328125 L 1081.289062 141.328125 L 1080.410156 145.859375 " fill-opacity="1" fill-rule="nonzero"/><path fill="#a5c4d9" d="M 1129.292969 145.859375 L 1085.789062 145.859375 L 1086.671875 141.328125 L 1130.171875 141.328125 L 1129.292969 145.859375 " fill-opacity="1" fill-rule="nonzero"/><path fill="#a5c4d9" d="M 1169.125 145.859375 L 1134.722656 145.859375 L 1135.601562 141.328125 L 1170.007812 141.328125 L 1169.125 145.859375 " fill-opacity="1" fill-rule="nonzero"/><path fill="#a5c4d9" d="M 1044.792969 145.425781 L 1030.390625 145.425781 L 1031.269531 140.886719 L 1045.671875 140.886719 L 1044.792969 145.425781 " fill-opacity="1" fill-rule="nonzero"/><path fill="#a5c4d9" d="M 1263.195312 168.144531 L 1246.367188 168.144531 C 1240.5625 168.144531 1236.867188 164.378906 1237.980469 158.683594 L 1240.507812 144.976562 C 1241.355469 140.640625 1245.148438 137.519531 1249.5625 137.519531 L 1265.316406 137.628906 C 1271.121094 137.628906 1274.269531 140.941406 1273.15625 146.636719 L 1270.394531 161.488281 C 1269.550781 165.820312 1267.609375 168.144531 1263.195312 168.144531 " fill-opacity="1" fill-rule="nonzero"/><path fill="#ffffff" d="M 1268.40625 143.035156 L 1262.316406 142.90625 L 1256.050781 149.195312 L 1250.933594 142.972656 L 1245.222656 142.972656 L 1252.925781 152.332031 L 1242.667969 162.628906 L 1248.761719 162.753906 L 1255.738281 155.75 L 1261.445312 162.6875 L 1267.15625 162.6875 L 1258.863281 152.617188 L 1268.40625 143.035156 " fill-opacity="1" fill-rule="nonzero"/><path fill="#a5c4d9" d="M 970.992188 30.917969 L 956.683594 30.917969 C 950.882812 30.917969 946.519531 25.625 947.632812 19.929688 L 949.984375 7.75 C 950.832031 3.417969 954.625 0.289062 959.042969 0.289062 L 973.351562 0.289062 C 979.152344 0.289062 983.515625 5.582031 982.40625 11.273438 L 980.046875 23.457031 C 979.207031 27.792969 975.40625 30.917969 970.992188 30.917969 " fill-opacity="1" fill-rule="nonzero"/><path fill="#ffffff" d="M 974.492188 23.3125 L 953.023438 22.957031 L 954.363281 18.5 L 975.832031 18.855469 L 974.492188 23.3125 " fill-opacity="1" fill-rule="nonzero"/><path fill="#f28f68" d="M 663.015625 271.277344 L 662.136719 275.8125 L 669.261719 275.8125 L 670.140625 271.277344 L 663.015625 271.277344 " fill-opacity="1" fill-rule="nonzero"/><path fill="#f28f68" d="M 659.558594 294.144531 L 666.679688 294.144531 L 667.566406 289.609375 L 660.441406 289.609375 L 659.558594 294.144531 " fill-opacity="1" fill-rule="nonzero"/><path fill="#f28f68" d="M 656.847656 312.21875 L 663.972656 312.21875 L 664.851562 307.683594 L 657.726562 307.683594 L 656.847656 312.21875 " fill-opacity="1" fill-rule="nonzero"/><path fill="#f28f68" d="M 654.269531 330.550781 L 661.394531 330.550781 L 662.273438 326.015625 L 655.148438 326.015625 L 654.269531 330.550781 " fill-opacity="1" fill-rule="nonzero"/><path fill="#f28f68" d="M 650.265625 350.375 L 657.386719 350.375 L 658.273438 345.839844 L 651.148438 345.839844 L 650.265625 350.375 " fill-opacity="1" fill-rule="nonzero"/><path fill="#f28f68" d="M 647.6875 368.710938 L 654.8125 368.710938 L 655.691406 364.175781 L 648.570312 364.175781 L 647.6875 368.710938 " fill-opacity="1" fill-rule="nonzero"/><path fill="#f28f68" d="M 644.066406 386.785156 L 651.1875 386.785156 L 652.066406 382.25 L 644.945312 382.25 L 644.066406 386.785156 " fill-opacity="1" fill-rule="nonzero"/><path fill="#f28f68" d="M 641.488281 405.117188 L 648.613281 405.117188 L 649.492188 400.582031 L 642.371094 400.582031 L 641.488281 405.117188 " fill-opacity="1" fill-rule="nonzero"/><path fill="#f28f68" d="M 637.484375 424.925781 L 644.609375 424.925781 L 645.492188 420.390625 L 638.367188 420.390625 L 637.484375 424.925781 " fill-opacity="1" fill-rule="nonzero"/><path fill="#edb04f" d="M 612.640625 263.808594 L 611.761719 268.34375 L 618.882812 268.34375 L 619.765625 263.808594 L 612.640625 263.808594 " fill-opacity="1" fill-rule="nonzero"/><path fill="#edb04f" d="M 609.183594 286.675781 L 616.308594 286.675781 L 617.1875 282.140625 L 610.0625 282.140625 L 609.183594 286.675781 " fill-opacity="1" fill-rule="nonzero"/><path fill="#edb04f" d="M 618.859375 312.746094 L 625.984375 312.746094 L 626.867188 308.210938 L 619.742188 308.210938 L 618.859375 312.746094 " fill-opacity="1" fill-rule="nonzero"/><path fill="#edb04f" d="M 616.285156 331.082031 L 623.40625 331.082031 L 624.289062 326.546875 L 617.164062 326.546875 L 616.285156 331.082031 " fill-opacity="1" fill-rule="nonzero"/><path fill="#edb04f" d="M 612.28125 350.90625 L 619.40625 350.90625 L 620.285156 346.371094 L 613.164062 346.371094 L 612.28125 350.90625 " fill-opacity="1" fill-rule="nonzero"/><path fill="#edb04f" d="M 609.703125 369.242188 L 616.828125 369.242188 L 617.707031 364.707031 L 610.585938 364.707031 L 609.703125 369.242188 " fill-opacity="1" fill-rule="nonzero"/><path fill="#edb04f" d="M 602.882812 395.496094 L 610.007812 395.496094 L 610.886719 390.960938 L 603.761719 390.960938 L 602.882812 395.496094 " fill-opacity="1" fill-rule="nonzero"/><path fill="#edb04f" d="M 600.304688 413.832031 L 607.429688 413.832031 L 608.308594 409.296875 L 601.1875 409.296875 L 600.304688 413.832031 " fill-opacity="1" fill-rule="nonzero"/><path fill="#edb04f" d="M 596.300781 433.640625 L 603.425781 433.640625 L 604.304688 429.105469 L 597.183594 429.105469 L 596.300781 433.640625 " fill-opacity="1" fill-rule="nonzero"/><path fill="#edb04f" d="M 613.835938 295.316406 C 613.515625 295.839844 613.191406 296.359375 612.871094 296.882812 L 612.386719 297.664062 C 612.300781 297.804688 612.046875 298.359375 611.90625 298.445312 C 611.585938 298.636719 611.605469 298.382812 611.464844 298.074219 C 611.324219 297.773438 611.199219 297.464844 611.085938 297.152344 C 610.890625 296.628906 610.738281 296.097656 610.609375 295.554688 C 610.472656 294.984375 609.59375 295.226562 609.730469 295.796875 C 609.9375 296.648438 610.210938 297.476562 610.5625 298.28125 C 610.785156 298.785156 611.015625 299.550781 611.675781 299.578125 C 612.363281 299.601562 612.703125 298.882812 613.011719 298.382812 C 613.550781 297.515625 614.085938 296.644531 614.621094 295.777344 C 614.929688 295.277344 614.140625 294.820312 613.835938 295.316406 " fill-opacity="1" fill-rule="nonzero"/><path fill="#edb04f" d="M 598.648438 380.753906 C 598.324219 381.277344 598.003906 381.796875 597.683594 382.320312 L 597.199219 383.101562 C 597.113281 383.242188 596.859375 383.796875 596.71875 383.882812 C 596.398438 384.074219 596.417969 383.820312 596.273438 383.511719 C 596.136719 383.210938 596.011719 382.902344 595.894531 382.589844 C 595.703125 382.066406 595.550781 381.535156 595.421875 380.992188 C 595.28125 380.421875 594.40625 380.664062 594.542969 381.234375 C 594.75 382.085938 595.023438 382.914062 595.375 383.71875 C 595.597656 384.21875 595.828125 384.988281 596.488281 385.015625 C 597.171875 385.039062 597.515625 384.320312 597.824219 383.820312 C 598.359375 382.953125 598.894531 382.082031 599.433594 381.214844 C 599.742188 380.714844 598.953125 380.257812 598.648438 380.753906 " fill-opacity="1" fill-rule="nonzero"/><path fill="#ccb6b6" d="M 657.933594 247.367188 C 654.902344 261.746094 651.929688 276.148438 649.007812 290.558594 C 637.714844 346.230469 627.238281 402.0625 617.542969 458.023438 L 616.632812 458.023438 C 619.214844 443.066406 621.863281 428.128906 624.5625 413.191406 C 634.585938 357.765625 645.410156 302.480469 657.011719 247.367188 L 657.933594 247.367188 " fill-opacity="1" fill-rule="nonzero"/><g transform="matrix(1, 0, 0, 1, 0, -0.000000000000042435)"><g clip-path="url(#e73d6e4431)"><g clip-path="url(#e4c7600120)"><g fill="#ffffff" fill-opacity="1"><g transform="translate(-4.964535, 25.442721)"><g><path d="M 6.1875 0 L 2.125 0 L 2.125 -20.6875 L 6.1875 -20.6875 Z M 6.1875 0 "/></g></g><g transform="translate(3.342668, 25.442721)"><g><path d="M 5.359375 -7.453125 C 5.359375 -5.984375 5.597656 -4.867188 6.078125 -4.109375 C 6.566406 -3.359375 7.351562 -2.984375 8.4375 -2.984375 C 9.519531 -2.984375 10.296875 -3.359375 10.765625 -4.109375 C 11.242188 -4.859375 11.484375 -5.972656 11.484375 -7.453125 C 11.484375 -8.921875 11.242188 -10.023438 10.765625 -10.765625 C 10.285156 -11.503906 9.5 -11.875 8.40625 -11.875 C 7.332031 -11.875 6.554688 -11.503906 6.078125 -10.765625 C 5.597656 -10.035156 5.359375 -8.929688 5.359375 -7.453125 Z M 15.625 -7.453125 C 15.625 -5.035156 14.984375 -3.144531 13.703125 -1.78125 C 12.429688 -0.414062 10.660156 0.265625 8.390625 0.265625 C 6.960938 0.265625 5.703125 -0.046875 4.609375 -0.671875 C 3.523438 -1.296875 2.6875 -2.191406 2.09375 -3.359375 C 1.507812 -4.523438 1.21875 -5.890625 1.21875 -7.453125 C 1.21875 -9.878906 1.851562 -11.765625 3.125 -13.109375 C 4.394531 -14.460938 6.175781 -15.140625 8.46875 -15.140625 C 9.894531 -15.140625 11.148438 -14.828125 12.234375 -14.203125 C 13.328125 -13.585938 14.164062 -12.695312 14.75 -11.53125 C 15.332031 -10.375 15.625 -9.015625 15.625 -7.453125 Z M 15.625 -7.453125 "/></g></g><g transform="translate(20.196322, 25.442721)"><g/></g><g transform="translate(27.267413, 25.442721)"><g><path d="M 14.34375 0 L 13.203125 -5.203125 L 11.65625 -11.765625 L 11.5625 -11.765625 L 8.84375 0 L 4.484375 0 L 0.265625 -14.859375 L 4.3125 -14.859375 L 6.015625 -8.28125 C 6.296875 -7.101562 6.578125 -5.476562 6.859375 -3.40625 L 6.9375 -3.40625 C 6.96875 -4.070312 7.125 -5.140625 7.40625 -6.609375 L 7.609375 -7.734375 L 9.453125 -14.859375 L 13.921875 -14.859375 L 15.65625 -7.734375 C 15.6875 -7.535156 15.738281 -7.242188 15.8125 -6.859375 C 15.894531 -6.484375 15.96875 -6.082031 16.03125 -5.65625 C 16.101562 -5.226562 16.171875 -4.804688 16.234375 -4.390625 C 16.296875 -3.984375 16.328125 -3.65625 16.328125 -3.40625 L 16.40625 -3.40625 C 16.488281 -4.039062 16.628906 -4.910156 16.828125 -6.015625 C 17.035156 -7.128906 17.1875 -7.882812 17.28125 -8.28125 L 19.0625 -14.859375 L 23.03125 -14.859375 L 18.75 0 Z M 14.34375 0 "/></g></g><g transform="translate(50.567457, 25.442721)"><g><path d="M 5.359375 -7.453125 C 5.359375 -5.984375 5.597656 -4.867188 6.078125 -4.109375 C 6.566406 -3.359375 7.351562 -2.984375 8.4375 -2.984375 C 9.519531 -2.984375 10.296875 -3.359375 10.765625 -4.109375 C 11.242188 -4.859375 11.484375 -5.972656 11.484375 -7.453125 C 11.484375 -8.921875 11.242188 -10.023438 10.765625 -10.765625 C 10.285156 -11.503906 9.5 -11.875 8.40625 -11.875 C 7.332031 -11.875 6.554688 -11.503906 6.078125 -10.765625 C 5.597656 -10.035156 5.359375 -8.929688 5.359375 -7.453125 Z M 15.625 -7.453125 C 15.625 -5.035156 14.984375 -3.144531 13.703125 -1.78125 C 12.429688 -0.414062 10.660156 0.265625 8.390625 0.265625 C 6.960938 0.265625 5.703125 -0.046875 4.609375 -0.671875 C 3.523438 -1.296875 2.6875 -2.191406 2.09375 -3.359375 C 1.507812 -4.523438 1.21875 -5.890625 1.21875 -7.453125 C 1.21875 -9.878906 1.851562 -11.765625 3.125 -13.109375 C 4.394531 -14.460938 6.175781 -15.140625 8.46875 -15.140625 C 9.894531 -15.140625 11.148438 -14.828125 12.234375 -14.203125 C 13.328125 -13.585938 14.164062 -12.695312 14.75 -11.53125 C 15.332031 -10.375 15.625 -9.015625 15.625 -7.453125 Z M 15.625 -7.453125 "/></g></g><g transform="translate(67.421111, 25.442721)"><g><path d="M 10.421875 -15.140625 C 10.972656 -15.140625 11.425781 -15.097656 11.78125 -15.015625 L 11.484375 -11.21875 C 11.148438 -11.300781 10.75 -11.34375 10.28125 -11.34375 C 8.988281 -11.34375 7.984375 -11.007812 7.265625 -10.34375 C 6.546875 -9.6875 6.1875 -8.757812 6.1875 -7.5625 L 6.1875 0 L 2.125 0 L 2.125 -14.859375 L 5.203125 -14.859375 L 5.796875 -12.359375 L 6 -12.359375 C 6.457031 -13.191406 7.078125 -13.863281 7.859375 -14.375 C 8.640625 -14.882812 9.492188 -15.140625 10.421875 -15.140625 Z M 10.421875 -15.140625 "/></g></g><g transform="translate(79.782229, 25.442721)"><g><path d="M 6.1875 0 L 2.125 0 L 2.125 -20.6875 L 6.1875 -20.6875 Z M 6.1875 0 "/></g></g><g transform="translate(88.089432, 25.442721)"><g><path d="M 6.828125 0.265625 C 5.085938 0.265625 3.71875 -0.410156 2.71875 -1.765625 C 1.71875 -3.117188 1.21875 -5 1.21875 -7.40625 C 1.21875 -9.84375 1.722656 -11.738281 2.734375 -13.09375 C 3.753906 -14.457031 5.15625 -15.140625 6.9375 -15.140625 C 8.800781 -15.140625 10.226562 -14.410156 11.21875 -12.953125 L 11.34375 -12.953125 C 11.144531 -14.066406 11.046875 -15.054688 11.046875 -15.921875 L 11.046875 -20.6875 L 15.109375 -20.6875 L 15.109375 0 L 12 0 L 11.21875 -1.921875 L 11.046875 -1.921875 C 10.117188 -0.460938 8.710938 0.265625 6.828125 0.265625 Z M 8.25 -2.96875 C 9.289062 -2.96875 10.050781 -3.265625 10.53125 -3.859375 C 11.007812 -4.460938 11.273438 -5.488281 11.328125 -6.9375 L 11.328125 -7.375 C 11.328125 -8.96875 11.078125 -10.109375 10.578125 -10.796875 C 10.085938 -11.492188 9.289062 -11.84375 8.1875 -11.84375 C 7.28125 -11.84375 6.578125 -11.457031 6.078125 -10.6875 C 5.578125 -9.925781 5.328125 -8.8125 5.328125 -7.34375 C 5.328125 -5.882812 5.578125 -4.789062 6.078125 -4.0625 C 6.585938 -3.332031 7.3125 -2.96875 8.25 -2.96875 Z M 8.25 -2.96875 "/></g></g></g></g></g></g></svg>